<?xml version="1.0" encoding="UTF-8" standalone="no"?>
<svg xmlns="http://www.w3.org/2000/svg" xmlns:xlink="http://www.w3.org/1999/xlink" contentScriptType="application/ecmascript" contentStyleType="text/css" height="488px" preserveAspectRatio="none" style="width:848px;height:488px;background:#FFFFFF;" version="1.1" viewBox="0 0 848 488" width="848px" zoomAndPan="magnify"><defs><filter height="300%" id="fslga407hzgmu" width="300%" x="-1" y="-1"><feGaussianBlur result="blurOut" stdDeviation="2.0"/><feColorMatrix in="blurOut" result="blurOut2" type="matrix" values="0 0 0 0 0 0 0 0 0 0 0 0 0 0 0 0 0 0 .4 0"/><feOffset dx="4.0" dy="4.0" in="blurOut2" result="blurOut3"/><feBlend in="SourceGraphic" in2="blurOut3" mode="normal"/></filter></defs><g><text fill="#000000" font-family="sans-serif" font-size="18" lengthAdjust="spacing" textLength="263" x="290.75" y="28.708">Basic Disclosure Submission</text><rect fill="#FFFFFF" filter="url(#fslga407hzgmu)" height="46.2656" rx="7.5" ry="7.5" style="stroke:#000000;stroke-width:2.0;" width="391" x="443.5" y="269.7813"/><line style="stroke:#A80036;stroke-width:1.0;stroke-dasharray:5.0,5.0;" x1="34" x2="34" y1="123.25" y2="404.3125"/><line style="stroke:#A80036;stroke-width:1.0;stroke-dasharray:5.0,5.0;" x1="200" x2="200" y1="123.25" y2="404.3125"/><line style="stroke:#A80036;stroke-width:1.0;stroke-dasharray:5.0,5.0;" x1="529.5" x2="529.5" y1="123.25" y2="404.3125"/><line style="stroke:#A80036;stroke-width:1.0;stroke-dasharray:5.0,5.0;" x1="721.5" x2="721.5" y1="123.25" y2="404.3125"/><text fill="#000000" font-family="sans-serif" font-size="14" lengthAdjust="spacing" textLength="52" x="5" y="119.9482">Vendor</text><ellipse cx="34" cy="49.9531" fill="#FEFECE" filter="url(#fslga407hzgmu)" rx="8" ry="8" style="stroke:#A80036;stroke-width:2.0;"/><path d="M34,57.9531 L34,84.9531 M21,65.9531 L47,65.9531 M34,84.9531 L21,99.9531 M34,84.9531 L47,99.9531 " fill="none" filter="url(#fslga407hzgmu)" style="stroke:#A80036;stroke-width:2.0;"/><text fill="#000000" font-family="sans-serif" font-size="14" lengthAdjust="spacing" textLength="52" x="5" y="416.3076">Vendor</text><ellipse cx="34" cy="429.6094" fill="#FEFECE" filter="url(#fslga407hzgmu)" rx="8" ry="8" style="stroke:#A80036;stroke-width:2.0;"/><path d="M34,437.6094 L34,464.6094 M21,445.6094 L47,445.6094 M34,464.6094 L21,479.6094 M34,464.6094 L47,479.6094 " fill="none" filter="url(#fslga407hzgmu)" style="stroke:#A80036;stroke-width:2.0;"/><text fill="#000000" font-family="sans-serif" font-size="14" lengthAdjust="spacing" textLength="198" x="98" y="119.9482">Disclosure Identity Provider</text><path d="M182,70.9531 C182,60.9531 200,60.9531 200,60.9531 C200,60.9531 218,60.9531 218,70.9531 L218,96.9531 C218,106.9531 200,106.9531 200,106.9531 C200,106.9531 182,106.9531 182,96.9531 L182,70.9531 " fill="#FEFECE" filter="url(#fslga407hzgmu)" style="stroke:#000000;stroke-width:1.5;"/><path d="M182,70.9531 C182,80.9531 200,80.9531 200,80.9531 C200,80.9531 218,80.9531 218,70.9531 " fill="none" style="stroke:#000000;stroke-width:1.5;"/><text fill="#000000" font-family="sans-serif" font-size="14" lengthAdjust="spacing" textLength="198" x="98" y="416.3076">Disclosure Identity Provider</text><path d="M182,429.6094 C182,419.6094 200,419.6094 200,419.6094 C200,419.6094 218,419.6094 218,429.6094 L218,455.6094 C218,465.6094 200,465.6094 200,465.6094 C200,465.6094 182,465.6094 182,455.6094 L182,429.6094 " fill="#FEFECE" filter="url(#fslga407hzgmu)" style="stroke:#000000;stroke-width:1.5;"/><path d="M182,429.6094 C182,439.6094 200,439.6094 200,439.6094 C200,439.6094 218,439.6094 218,429.6094 " fill="none" style="stroke:#000000;stroke-width:1.5;"/><text fill="#000000" font-family="sans-serif" font-size="14" lengthAdjust="spacing" textLength="147" x="453.5" y="119.9482">Signature Generator</text><ellipse cx="530" cy="90.9531" fill="#FEFECE" filter="url(#fslga407hzgmu)" rx="12" ry="12" style="stroke:#A80036;stroke-width:2.0;"/><polygon fill="#A80036" points="526,78.9531,532,73.9531,530,78.9531,532,83.9531,526,78.9531" style="stroke:#A80036;stroke-width:1.0;"/><text fill="#000000" font-family="sans-serif" font-size="14" lengthAdjust="spacing" textLength="147" x="453.5" y="416.3076">Signature Generator</text><ellipse cx="530" cy="435.6094" fill="#FEFECE" filter="url(#fslga407hzgmu)" rx="12" ry="12" style="stroke:#A80036;stroke-width:2.0;"/><polygon fill="#A80036" points="526,423.6094,532,418.6094,530,423.6094,532,428.6094,526,423.6094" style="stroke:#A80036;stroke-width:1.0;"/><text fill="#000000" font-family="sans-serif" font-size="14" lengthAdjust="spacing" textLength="199" x="619.5" y="119.9482">Federated Identity Provider</text><path d="M704,70.9531 C704,60.9531 722,60.9531 722,60.9531 C722,60.9531 740,60.9531 740,70.9531 L740,96.9531 C740,106.9531 722,106.9531 722,106.9531 C722,106.9531 704,106.9531 704,96.9531 L704,70.9531 " fill="#FEFECE" filter="url(#fslga407hzgmu)" style="stroke:#000000;stroke-width:1.5;"/><path d="M704,70.9531 C704,80.9531 722,80.9531 722,80.9531 C722,80.9531 740,80.9531 740,70.9531 " fill="none" style="stroke:#000000;stroke-width:1.5;"/><text fill="#000000" font-family="sans-serif" font-size="14" lengthAdjust="spacing" textLength="199" x="619.5" y="416.3076">Federated Identity Provider</text><path d="M704,429.6094 C704,419.6094 722,419.6094 722,419.6094 C722,419.6094 740,419.6094 740,429.6094 L740,455.6094 C740,465.6094 722,465.6094 722,465.6094 C722,465.6094 704,465.6094 704,455.6094 L704,429.6094 " fill="#FEFECE" filter="url(#fslga407hzgmu)" style="stroke:#000000;stroke-width:1.5;"/><path d="M704,429.6094 C704,439.6094 722,439.6094 722,439.6094 C722,439.6094 740,439.6094 740,429.6094 " fill="none" style="stroke:#000000;stroke-width:1.5;"/><polygon fill="#A80036" points="188,150.3828,198,154.3828,188,158.3828,192,154.3828" style="stroke:#A80036;stroke-width:1.0;"/><line style="stroke:#A80036;stroke-width:1.0;" x1="34" x2="194" y1="154.3828" y2="154.3828"/><text fill="#000000" font-family="sans-serif" font-size="13" font-weight="bold" lengthAdjust="spacing" textLength="9" x="41" y="149.3169">1</text><text fill="#000000" font-family="sans-serif" font-size="13" lengthAdjust="spacing" textLength="123" x="54" y="149.3169">Disclosure Request</text><line style="stroke:#A80036;stroke-width:1.0;" x1="200" x2="242" y1="183.5156" y2="183.5156"/><line style="stroke:#A80036;stroke-width:1.0;" x1="242" x2="242" y1="183.5156" y2="196.5156"/><line style="stroke:#A80036;stroke-width:1.0;" x1="201" x2="242" y1="196.5156" y2="196.5156"/><polygon fill="#A80036" points="211,192.5156,201,196.5156,211,200.5156,207,196.5156" style="stroke:#A80036;stroke-width:1.0;"/><text fill="#000000" font-family="sans-serif" font-size="13" font-weight="bold" lengthAdjust="spacing" textLength="9" x="207" y="178.4497">2</text><text fill="#000000" font-family="sans-serif" font-size="13" lengthAdjust="spacing" textLength="88" x="220" y="178.4497">Validate input</text><polygon fill="#A80036" points="518,221.6484,528,225.6484,518,229.6484,522,225.6484" style="stroke:#A80036;stroke-width:1.0;"/><line style="stroke:#A80036;stroke-width:1.0;" x1="200" x2="524" y1="225.6484" y2="225.6484"/><text fill="#000000" font-family="sans-serif" font-size="13" font-weight="bold" lengthAdjust="spacing" textLength="8" x="207" y="220.5825">3</text><text fill="#000000" font-family="sans-serif" font-size="13" lengthAdjust="spacing" textLength="169" x="219" y="220.5825">Structured Data, Initialized</text><polygon fill="#A80036" points="211,250.7813,201,254.7813,211,258.7813,207,254.7813" style="stroke:#A80036;stroke-width:1.0;"/><line style="stroke:#A80036;stroke-width:1.0;stroke-dasharray:2.0,2.0;" x1="205" x2="529" y1="254.7813" y2="254.7813"/><text fill="#000000" font-family="sans-serif" font-size="13" font-weight="bold" lengthAdjust="spacing" textLength="9" x="217" y="249.7153">4</text><text fill="#000000" font-family="sans-serif" font-size="13" lengthAdjust="spacing" textLength="155" x="230" y="249.7153">SHA3-512 integrity hash</text><path d="M451,269.7813 L705.5,269.7813 L705.5,276.7813 L695.5,286.7813 L443.5,286.7813 L443.5,277.2813 A7.5,7.5 0 0 1 451,269.7813 " fill="#EEEEEE" style="stroke:#000000;stroke-width:1.0;"/><rect fill="none" height="46.2656" rx="7.5" ry="7.5" style="stroke:#000000;stroke-width:2.0;" width="391" x="443.5" y="269.7813"/><text fill="#000000" font-family="sans-serif" font-size="13" font-weight="bold" lengthAdjust="spacing" textLength="217" x="458.5" y="282.8481">Distributed Identity Storage</text><polygon fill="#A80036" points="710,304.0469,720,308.0469,710,312.0469,714,308.0469" style="stroke:#A80036;stroke-width:1.0;"/><line style="stroke:#A80036;stroke-width:1.0;stroke-dasharray:2.0,2.0;" x1="530" x2="716" y1="308.0469" y2="308.0469"/><text fill="#000000" font-family="sans-serif" font-size="13" font-weight="bold" lengthAdjust="spacing" textLength="9" x="537" y="302.981">5</text><text fill="#000000" font-family="sans-serif" font-size="13" lengthAdjust="spacing" textLength="155" x="550" y="302.981">SHA3-512 integrity hash</text><line style="stroke:#A80036;stroke-width:1.0;" x1="200" x2="242" y1="344.1797" y2="344.1797"/><line style="stroke:#A80036;stroke-width:1.0;" x1="242" x2="242" y1="344.1797" y2="357.1797"/><line style="stroke:#A80036;stroke-width:1.0;" x1="201" x2="242" y1="357.1797" y2="357.1797"/><polygon fill="#A80036" points="211,353.1797,201,357.1797,211,361.1797,207,357.1797" style="stroke:#A80036;stroke-width:1.0;"/><text fill="#000000" font-family="sans-serif" font-size="13" font-weight="bold" lengthAdjust="spacing" textLength="9" x="207" y="339.1138">6</text><text fill="#000000" font-family="sans-serif" font-size="13" lengthAdjust="spacing" textLength="303" x="220" y="339.1138">Log OETP file and a corresponding intgrity hash</text><polygon fill="#A80036" points="45,382.3125,35,386.3125,45,390.3125,41,386.3125" style="stroke:#A80036;stroke-width:1.0;"/><line style="stroke:#A80036;stroke-width:1.0;stroke-dasharray:2.0,2.0;" x1="39" x2="199" y1="386.3125" y2="386.3125"/><text fill="#000000" font-family="sans-serif" font-size="13" font-weight="bold" lengthAdjust="spacing" textLength="9" x="51" y="381.2466">7</text><text fill="#000000" font-family="sans-serif" font-size="13" lengthAdjust="spacing" textLength="129" x="64" y="381.2466">OETP Disclosure File</text><!--MD5=[6b8c72aa7e856f5b4624d3a902d0e46b]
@startuml
title Basic Disclosure Submission

skinparam roundCorner 15
autonumber

actor Vendor
database "Disclosure Identity Provider" as ID
control "Signature Generator" as SIG
database "Federated Identity Provider" as DIS

Vendor -> ID: Disclosure Request
ID -> ID: Validate input
ID -> SIG: Structured Data, Initialized

ID <- - SIG: SHA3-512 integrity hash
    group Distributed Identity Storage
DIS <- - SIG: SHA3-512 integrity hash
end
ID -> ID: Log OETP file and a corresponding intgrity hash
Vendor <- - ID: OETP Disclosure File
@enduml

PlantUML version 1.2021.14beta6(Unknown compile time)
(GPL source distribution)
Java Runtime: Java(TM) SE Runtime Environment
JVM: Java HotSpot(TM) 64-Bit Server VM
Default Encoding: UTF-8
Language: en
Country: US
--></g></svg>