<?xml version="1.0" encoding="UTF-8" standalone="no"?>
<svg xmlns="http://www.w3.org/2000/svg" xmlns:xlink="http://www.w3.org/1999/xlink" contentScriptType="application/ecmascript" contentStyleType="text/css" height="457px" preserveAspectRatio="none" style="width:961px;height:457px;background:#FFFFFF;" version="1.1" viewBox="0 0 961 457" width="961px" zoomAndPan="magnify"><defs><filter height="300%" id="fh5ajzf1x3p65" width="300%" x="-1" y="-1"><feGaussianBlur result="blurOut" stdDeviation="2.0"/><feColorMatrix in="blurOut" result="blurOut2" type="matrix" values="0 0 0 0 0 0 0 0 0 0 0 0 0 0 0 0 0 0 .4 0"/><feOffset dx="4.0" dy="4.0" in="blurOut2" result="blurOut3"/><feBlend in="SourceGraphic" in2="blurOut3" mode="normal"/></filter></defs><g><text fill="#000000" font-family="sans-serif" font-size="18" lengthAdjust="spacing" textLength="251" x="345" y="16.708">Disclouse Creation Process</text><!--MD5=[2e196586b73320830e6bcb7e3200d727]
entity SA--><ellipse cx="420" cy="380.9531" fill="#FEFECE" filter="url(#fh5ajzf1x3p65)" rx="8" ry="8" style="stroke:#A80036;stroke-width:1.5;"/><path d="M420,388.9531 L420,415.9531 M407,396.9531 L433,396.9531 M420,415.9531 L407,430.9531 M420,415.9531 L433,430.9531 " fill="none" filter="url(#fh5ajzf1x3p65)" style="stroke:#A80036;stroke-width:1.5;"/><text fill="#000000" font-family="sans-serif" font-size="14" lengthAdjust="spacing" textLength="74" x="383" y="449.4482">Supplier A</text><!--MD5=[db5ca709379f12a280ab2b7d6533fd7d]
entity SB--><ellipse cx="245" cy="380.9531" fill="#FEFECE" filter="url(#fh5ajzf1x3p65)" rx="8" ry="8" style="stroke:#A80036;stroke-width:1.5;"/><path d="M245,388.9531 L245,415.9531 M232,396.9531 L258,396.9531 M245,415.9531 L232,430.9531 M245,415.9531 L258,430.9531 " fill="none" filter="url(#fh5ajzf1x3p65)" style="stroke:#A80036;stroke-width:1.5;"/><text fill="#000000" font-family="sans-serif" font-size="14" lengthAdjust="spacing" textLength="74" x="208" y="449.4482">Supplier B</text><!--MD5=[9c35c66068622dad62ecac52c54c307b]
entity V--><ellipse cx="32" cy="34.9531" fill="#FEFECE" filter="url(#fh5ajzf1x3p65)" rx="8" ry="8" style="stroke:#A80036;stroke-width:1.5;"/><path d="M32,42.9531 L32,69.9531 M19,50.9531 L45,50.9531 M32,69.9531 L19,84.9531 M32,69.9531 L45,84.9531 " fill="none" filter="url(#fh5ajzf1x3p65)" style="stroke:#A80036;stroke-width:1.5;"/><text fill="#000000" font-family="sans-serif" font-size="14" lengthAdjust="spacing" textLength="52" x="6" y="103.4482">Vendor</text><!--MD5=[7b252b082557083cb6afa3ae89fae9bf]
entity CA--><rect fill="#FEFECE" filter="url(#fh5ajzf1x3p65)" height="46.2969" rx="7.5" ry="7.5" style="stroke:#A80036;stroke-width:1.5;" width="140" x="350" y="264.4531"/><rect fill="#FEFECE" height="10" style="stroke:#A80036;stroke-width:1.5;" width="15" x="470" y="269.4531"/><rect fill="#FEFECE" height="2" style="stroke:#A80036;stroke-width:1.5;" width="4" x="468" y="271.4531"/><rect fill="#FEFECE" height="2" style="stroke:#A80036;stroke-width:1.5;" width="4" x="468" y="275.4531"/><text fill="#000000" font-family="sans-serif" font-size="14" lengthAdjust="spacing" textLength="100" x="365" y="297.4482">Component A</text><!--MD5=[b9a6fa3e926141d370e499cfdaf642ce]
entity CB--><rect fill="#FEFECE" filter="url(#fh5ajzf1x3p65)" height="46.2969" rx="7.5" ry="7.5" style="stroke:#A80036;stroke-width:1.5;" width="140" x="175" y="264.4531"/><rect fill="#FEFECE" height="10" style="stroke:#A80036;stroke-width:1.5;" width="15" x="295" y="269.4531"/><rect fill="#FEFECE" height="2" style="stroke:#A80036;stroke-width:1.5;" width="4" x="293" y="271.4531"/><rect fill="#FEFECE" height="2" style="stroke:#A80036;stroke-width:1.5;" width="4" x="293" y="275.4531"/><text fill="#000000" font-family="sans-serif" font-size="14" lengthAdjust="spacing" textLength="100" x="190" y="297.4482">Component B</text><!--MD5=[bdbee0fc59a29b9ec21c283a244fef13]
entity DA--><path d="M355.5,174.9531 L355.5,196.25 A7.5,7.5 0 0 0 363,203.75 L455,203.75 A7.5,7.5 0 0 0 462.5,196.25 L462.5,177.4531 L452.5,167.4531 L363,167.4531 A7.5,7.5 0 0 0 355.5,174.9531 " fill="#FEFECE" filter="url(#fh5ajzf1x3p65)" style="stroke:#000000;stroke-width:1.5;"/><path d="M452.5,167.4531 L452.5,169.9531 A7.5,7.5 0 0 0 460,177.4531 L462.5,177.4531 " fill="#FEFECE" style="stroke:#000000;stroke-width:1.5;"/><text fill="#000000" font-family="sans-serif" font-size="14" lengthAdjust="spacing" textLength="87" x="365.5" y="190.4482">Disclosure A</text><!--MD5=[f9ba5bf973e7832d2ce5ed59077b93f7]
entity DB--><path d="M211.5,174.9531 L211.5,196.25 A7.5,7.5 0 0 0 219,203.75 L311,203.75 A7.5,7.5 0 0 0 318.5,196.25 L318.5,177.4531 L308.5,167.4531 L219,167.4531 A7.5,7.5 0 0 0 211.5,174.9531 " fill="#FEFECE" filter="url(#fh5ajzf1x3p65)" style="stroke:#000000;stroke-width:1.5;"/><path d="M308.5,167.4531 L308.5,169.9531 A7.5,7.5 0 0 0 316,177.4531 L318.5,177.4531 " fill="#FEFECE" style="stroke:#000000;stroke-width:1.5;"/><text fill="#000000" font-family="sans-serif" font-size="14" lengthAdjust="spacing" textLength="87" x="221.5" y="190.4482">Disclosure B</text><!--MD5=[118f42602524ad482f02b27ef22fc383]
entity D--><path d="M771,55.4531 L771,76.75 A7.5,7.5 0 0 0 778.5,84.25 L939.5,84.25 A7.5,7.5 0 0 0 947,76.75 L947,57.9531 L937,47.9531 L778.5,47.9531 A7.5,7.5 0 0 0 771,55.4531 " fill="#FEFECE" filter="url(#fh5ajzf1x3p65)" style="stroke:#000000;stroke-width:1.5;"/><path d="M937,47.9531 L937,50.4531 A7.5,7.5 0 0 0 944.5,57.9531 L947,57.9531 " fill="#FEFECE" style="stroke:#000000;stroke-width:1.5;"/><text fill="#000000" font-family="sans-serif" font-size="14" lengthAdjust="spacing" textLength="156" x="781" y="70.9482">Composite Disclosure</text><ellipse cx="201.8333" cy="66.1986" fill="#FEFECE" filter="url(#fh5ajzf1x3p65)" rx="56.3333" ry="14.7455" style="stroke:#A80036;stroke-width:1.5;"/><text fill="#000000" font-family="sans-serif" font-size="14" lengthAdjust="spacing" textLength="62" x="167.8333" y="69.9462">Creation</text><ellipse cx="349.8333" cy="66.1986" fill="#FEFECE" filter="url(#fh5ajzf1x3p65)" rx="56.3333" ry="14.7455" style="stroke:#A80036;stroke-width:1.5;"/><text fill="#000000" font-family="sans-serif" font-size="14" lengthAdjust="spacing" textLength="62" x="315.8333" y="69.9462">Chaining</text><ellipse cx="504.2349" cy="65.9001" fill="#FEFECE" filter="url(#fh5ajzf1x3p65)" rx="62.7349" ry="14.947" style="stroke:#A80036;stroke-width:1.5;"/><text fill="#000000" font-family="sans-serif" font-size="14" lengthAdjust="spacing" textLength="72" x="465.2349" y="69.6477">Validation</text><ellipse cx="668.8142" cy="65.716" fill="#FEFECE" filter="url(#fh5ajzf1x3p65)" rx="66.8142" ry="15.7628" style="stroke:#A80036;stroke-width:1.5;"/><text fill="#000000" font-family="sans-serif" font-size="14" lengthAdjust="spacing" textLength="84" x="623.8142" y="69.4635">Verification</text><!--MD5=[3b24f9c31caf6a3e609d3643f5c0be71]
link V to Creation--><path d="M58.1899,65.9531 C79.9346,65.9531 111.751,65.9531 139.932,65.9531 " fill="none" id="V-to-Creation" style="stroke:#A80036;stroke-width:1.0;"/><polygon fill="#A80036" points="145.149,65.9531,136.149,61.9531,140.149,65.9531,136.149,69.9531,145.149,65.9531" style="stroke:#A80036;stroke-width:1.0;"/><text fill="#000000" font-family="sans-serif" font-size="13" lengthAdjust="spacing" textLength="51" x="76.25" y="59.02">disclose</text><!--MD5=[b41c0f77075d05ddbd550d277ca9dc13]
reverse link CA to SA--><path d="M420,315.9611 C420,332.2121 420,353.0698 420,371.0989 " fill="none" id="CA-backto-SA" style="stroke:#A80036;stroke-width:1.0;"/><polygon fill="#A80036" points="420,310.6371,416,319.6371,420,315.6371,424,319.6371,420,310.6371" style="stroke:#A80036;stroke-width:1.0;"/><!--MD5=[9714ec813d4033e46824989572325335]
reverse link CB to SB--><path d="M245,315.9611 C245,332.2121 245,353.0698 245,371.0989 " fill="none" id="CB-backto-SB" style="stroke:#A80036;stroke-width:1.0;"/><polygon fill="#A80036" points="245,310.6371,241,319.6371,245,315.6371,249,319.6371,245,310.6371" style="stroke:#A80036;stroke-width:1.0;"/><!--MD5=[2b92c5e558245565c6287bcab53c46a1]
reverse link DA to CA--><path d="M411.506,209.2381 C413.323,225.7571 415.767,247.9751 417.567,264.3371 " fill="none" id="DA-backto-CA" style="stroke:#A80036;stroke-width:1.0;"/><polygon fill="#A80036" points="410.916,203.8721,407.9249,213.2558,411.4631,208.8421,415.8768,212.3804,410.916,203.8721" style="stroke:#A80036;stroke-width:1.0;"/><!--MD5=[48b75eeedec11a6160b7829c58b77841]
reverse link DB to CB--><path d="M260.529,208.8091 C257.217,225.3701 252.724,247.8331 249.423,264.3371 " fill="none" id="DB-backto-CB" style="stroke:#A80036;stroke-width:1.0;"/><polygon fill="#A80036" points="261.516,203.8721,255.8273,211.9119,260.5346,208.7749,263.6717,213.4822,261.516,203.8721" style="stroke:#A80036;stroke-width:1.0;"/><!--MD5=[b0898fcc9732628c8f32e4b6dca1636e]
reverse link Chaining to DA--><path d="M359.045,84.9661 C370.298,107.3761 389.372,145.3621 400.409,167.3441 " fill="none" id="Chaining-backto-DA" style="stroke:#A80036;stroke-width:1.0;"/><polygon fill="#A80036" points="356.768,80.4321,357.2303,90.2701,359.0109,84.9008,364.3802,86.6815,356.768,80.4321" style="stroke:#A80036;stroke-width:1.0;"/><!--MD5=[e366b3f80ef8840dd4ccc16b4c5fbdc4]
reverse link Chaining to DB--><path d="M337.172,84.6861 C320.988,107.0581 293.345,145.2701 277.377,167.3441 " fill="none" id="Chaining-backto-DB" style="stroke:#A80036;stroke-width:1.0;"/><polygon fill="#A80036" points="340.249,80.4321,331.7325,85.3788,337.318,84.483,338.2139,90.0684,340.249,80.4321" style="stroke:#A80036;stroke-width:1.0;"/><!--MD5=[b204bb1d20a34d654792238222e6dff0]
link Creation to Chaining--><path d="M258.656,65.9531 C268.481,65.9531 278.305,65.9531 288.129,65.9531 " fill="none" id="Creation-to-Chaining" style="stroke:#A80036;stroke-width:1.0;"/><polygon fill="#A80036" points="293.267,65.9531,284.267,61.9531,288.267,65.9531,284.267,69.9531,293.267,65.9531" style="stroke:#A80036;stroke-width:1.0;"/><!--MD5=[0abf910d8caba42c516843e29163170a]
link Chaining to Validation--><path d="M406.547,65.9531 C416.38,65.9531 426.213,65.9531 436.046,65.9531 " fill="none" id="Chaining-to-Validation" style="stroke:#A80036;stroke-width:1.0;"/><polygon fill="#A80036" points="441.188,65.9531,432.188,61.9531,436.188,65.9531,432.188,69.9531,441.188,65.9531" style="stroke:#A80036;stroke-width:1.0;"/><!--MD5=[f1f6c72b006e83a926d8890997980350]
link Validation to Verification--><path d="M566.52,65.9531 C576.519,65.9531 586.519,65.9531 596.518,65.9531 " fill="none" id="Validation-to-Verification" style="stroke:#A80036;stroke-width:1.0;"/><polygon fill="#A80036" points="601.747,65.9531,592.747,61.9531,596.747,65.9531,592.747,69.9531,601.747,65.9531" style="stroke:#A80036;stroke-width:1.0;"/><!--MD5=[a7e1cf9343fd0f8d4b5d63e66d817dca]
link Verification to D--><path d="M736.168,65.9531 C745.974,65.9531 755.78,65.9531 765.586,65.9531 " fill="none" id="Verification-to-D" style="stroke:#A80036;stroke-width:1.0;"/><polygon fill="#A80036" points="770.714,65.9531,761.714,61.9531,765.714,65.9531,761.714,69.9531,770.714,65.9531" style="stroke:#A80036;stroke-width:1.0;"/><!--MD5=[be1e001178a9086b5698afa198fa941a]
@startuml
title Disclouse Creation Process

skinparam roundCorner 15

actor "Supplier A" as SA
actor "Supplier B" as SB
actor Vendor as V

component "Component A" as CA
component "Component B" as CB
file "Disclosure A" as DA
file "Disclosure B" as DB
file "Composite Disclosure" as D

V-right->(Creation):disclose
SA-up->CA
SB-up->CB
CA-up->DA
CB-up->DB
DA-up->(Chaining)
DB-up->(Chaining)
(Creation)->(Chaining)
(Chaining)->(Validation)
(Validation)->(Verification)
(Verification)->D
@enduml

PlantUML version 1.2021.14beta3(Unknown compile time)
(GPL source distribution)
Java Runtime: Java(TM) SE Runtime Environment
JVM: Java HotSpot(TM) 64-Bit Server VM
Default Encoding: UTF-8
Language: en
Country: US
--></g></svg>