<?xml version="1.0" encoding="UTF-8" standalone="no"?>
<svg xmlns="http://www.w3.org/2000/svg" xmlns:xlink="http://www.w3.org/1999/xlink" contentScriptType="application/ecmascript" contentStyleType="text/css" height="592px" preserveAspectRatio="none" style="width:813px;height:592px;background:#FFFFFF;" version="1.1" viewBox="0 0 813 592" width="813px" zoomAndPan="magnify"><defs><filter height="300%" id="f1jm9lvddbvjis" width="300%" x="-1" y="-1"><feGaussianBlur result="blurOut" stdDeviation="2.0"/><feColorMatrix in="blurOut" result="blurOut2" type="matrix" values="0 0 0 0 0 0 0 0 0 0 0 0 0 0 0 0 0 0 .4 0"/><feOffset dx="4.0" dy="4.0" in="blurOut2" result="blurOut3"/><feBlend in="SourceGraphic" in2="blurOut3" mode="normal"/></filter></defs><g><text fill="#000000" font-family="sans-serif" font-size="18" lengthAdjust="spacing" textLength="433" x="188.25" y="28.708">Progressive Verification with multiple Auditors</text><rect fill="#FFFFFF" filter="url(#f1jm9lvddbvjis)" height="175.7969" rx="7.5" ry="7.5" style="stroke:#000000;stroke-width:2.0;" width="558" x="241.5" y="227.6484"/><line style="stroke:#A80036;stroke-width:1.0;stroke-dasharray:5.0,5.0;" x1="23" x2="23" y1="123.25" y2="507.8438"/><line style="stroke:#A80036;stroke-width:1.0;stroke-dasharray:5.0,5.0;" x1="189.5" x2="189.5" y1="123.25" y2="507.8438"/><line style="stroke:#A80036;stroke-width:1.0;stroke-dasharray:5.0,5.0;" x1="353.5" x2="353.5" y1="123.25" y2="507.8438"/><line style="stroke:#A80036;stroke-width:1.0;stroke-dasharray:5.0,5.0;" x1="652.5" x2="652.5" y1="123.25" y2="507.8438"/><line style="stroke:#A80036;stroke-width:1.0;stroke-dasharray:5.0,5.0;" x1="746.5" x2="746.5" y1="123.25" y2="507.8438"/><text fill="#000000" font-family="sans-serif" font-size="14" lengthAdjust="spacing" textLength="31" x="5" y="119.9482">User</text><ellipse cx="23.5" cy="49.9531" fill="#FEFECE" filter="url(#f1jm9lvddbvjis)" rx="8" ry="8" style="stroke:#A80036;stroke-width:2.0;"/><path d="M23.5,57.9531 L23.5,84.9531 M10.5,65.9531 L36.5,65.9531 M23.5,84.9531 L10.5,99.9531 M23.5,84.9531 L36.5,99.9531 " fill="none" filter="url(#f1jm9lvddbvjis)" style="stroke:#A80036;stroke-width:2.0;"/><text fill="#000000" font-family="sans-serif" font-size="14" lengthAdjust="spacing" textLength="31" x="5" y="519.8389">User</text><ellipse cx="23.5" cy="533.1406" fill="#FEFECE" filter="url(#f1jm9lvddbvjis)" rx="8" ry="8" style="stroke:#A80036;stroke-width:2.0;"/><path d="M23.5,541.1406 L23.5,568.1406 M10.5,549.1406 L36.5,549.1406 M23.5,568.1406 L10.5,583.1406 M23.5,568.1406 L36.5,583.1406 " fill="none" filter="url(#f1jm9lvddbvjis)" style="stroke:#A80036;stroke-width:2.0;"/><rect fill="#FEFECE" filter="url(#f1jm9lvddbvjis)" height="30.2969" rx="7.5" ry="7.5" style="stroke:#A80036;stroke-width:1.5;" width="66" x="154.5" y="87.9531"/><text fill="#000000" font-family="sans-serif" font-size="14" lengthAdjust="spacing" textLength="52" x="161.5" y="107.9482">Vendor</text><rect fill="#FEFECE" filter="url(#f1jm9lvddbvjis)" height="30.2969" rx="7.5" ry="7.5" style="stroke:#A80036;stroke-width:1.5;" width="66" x="154.5" y="506.8438"/><text fill="#000000" font-family="sans-serif" font-size="14" lengthAdjust="spacing" textLength="52" x="161.5" y="526.8389">Vendor</text><text fill="#000000" font-family="sans-serif" font-size="14" lengthAdjust="spacing" textLength="198" x="251.5" y="119.9482">Disclosure Identity Provider</text><path d="M335.5,70.9531 C335.5,60.9531 353.5,60.9531 353.5,60.9531 C353.5,60.9531 371.5,60.9531 371.5,70.9531 L371.5,96.9531 C371.5,106.9531 353.5,106.9531 353.5,106.9531 C353.5,106.9531 335.5,106.9531 335.5,96.9531 L335.5,70.9531 " fill="#FEFECE" filter="url(#f1jm9lvddbvjis)" style="stroke:#000000;stroke-width:1.5;"/><path d="M335.5,70.9531 C335.5,80.9531 353.5,80.9531 353.5,80.9531 C353.5,80.9531 371.5,80.9531 371.5,70.9531 " fill="none" style="stroke:#000000;stroke-width:1.5;"/><text fill="#000000" font-family="sans-serif" font-size="14" lengthAdjust="spacing" textLength="198" x="251.5" y="519.8389">Disclosure Identity Provider</text><path d="M335.5,533.1406 C335.5,523.1406 353.5,523.1406 353.5,523.1406 C353.5,523.1406 371.5,523.1406 371.5,533.1406 L371.5,559.1406 C371.5,569.1406 353.5,569.1406 353.5,569.1406 C353.5,569.1406 335.5,569.1406 335.5,559.1406 L335.5,533.1406 " fill="#FEFECE" filter="url(#f1jm9lvddbvjis)" style="stroke:#000000;stroke-width:1.5;"/><path d="M335.5,533.1406 C335.5,543.1406 353.5,543.1406 353.5,543.1406 C353.5,543.1406 371.5,543.1406 371.5,533.1406 " fill="none" style="stroke:#000000;stroke-width:1.5;"/><rect fill="#FEFECE" filter="url(#f1jm9lvddbvjis)" height="30.2969" rx="7.5" ry="7.5" style="stroke:#A80036;stroke-width:1.5;" width="80" x="610.5" y="87.9531"/><text fill="#000000" font-family="sans-serif" font-size="14" lengthAdjust="spacing" textLength="66" x="617.5" y="107.9482">Auditor 1</text><rect fill="#FEFECE" filter="url(#f1jm9lvddbvjis)" height="30.2969" rx="7.5" ry="7.5" style="stroke:#A80036;stroke-width:1.5;" width="80" x="610.5" y="506.8438"/><text fill="#000000" font-family="sans-serif" font-size="14" lengthAdjust="spacing" textLength="66" x="617.5" y="526.8389">Auditor 1</text><rect fill="#FEFECE" filter="url(#f1jm9lvddbvjis)" height="30.2969" rx="7.5" ry="7.5" style="stroke:#A80036;stroke-width:1.5;" width="81" x="704.5" y="87.9531"/><text fill="#000000" font-family="sans-serif" font-size="14" lengthAdjust="spacing" textLength="67" x="711.5" y="107.9482">Auditor N</text><rect fill="#FEFECE" filter="url(#f1jm9lvddbvjis)" height="30.2969" rx="7.5" ry="7.5" style="stroke:#A80036;stroke-width:1.5;" width="81" x="704.5" y="506.8438"/><text fill="#000000" font-family="sans-serif" font-size="14" lengthAdjust="spacing" textLength="67" x="711.5" y="526.8389">Auditor N</text><polygon fill="#A80036" points="177.5,150.3828,187.5,154.3828,177.5,158.3828,181.5,154.3828" style="stroke:#A80036;stroke-width:1.0;"/><line style="stroke:#A80036;stroke-width:1.0;" x1="23.5" x2="183.5" y1="154.3828" y2="154.3828"/><text fill="#000000" font-family="sans-serif" font-size="13" font-weight="bold" lengthAdjust="spacing" textLength="9" x="30.5" y="149.3169">1</text><text fill="#000000" font-family="sans-serif" font-size="13" lengthAdjust="spacing" textLength="123" x="43.5" y="149.3169">Disclosure Request</text><polygon fill="#A80036" points="34.5,179.5156,24.5,183.5156,34.5,187.5156,30.5,183.5156" style="stroke:#A80036;stroke-width:1.0;"/><line style="stroke:#A80036;stroke-width:1.0;stroke-dasharray:2.0,2.0;" x1="28.5" x2="188.5" y1="183.5156" y2="183.5156"/><text fill="#000000" font-family="sans-serif" font-size="13" font-weight="bold" lengthAdjust="spacing" textLength="9" x="40.5" y="178.4497">2</text><text fill="#000000" font-family="sans-serif" font-size="13" lengthAdjust="spacing" textLength="129" x="53.5" y="178.4497">OETP Disclosure File</text><polygon fill="#A80036" points="341.5,208.6484,351.5,212.6484,341.5,216.6484,345.5,212.6484" style="stroke:#A80036;stroke-width:1.0;"/><line style="stroke:#A80036;stroke-width:1.0;" x1="23.5" x2="347.5" y1="212.6484" y2="212.6484"/><text fill="#000000" font-family="sans-serif" font-size="13" font-weight="bold" lengthAdjust="spacing" textLength="8" x="30.5" y="207.5825">3</text><text fill="#000000" font-family="sans-serif" font-size="13" lengthAdjust="spacing" textLength="294" x="42.5" y="207.5825">Disclosure Validation and Verification Request</text><path d="M249,227.6484 L552.5,227.6484 L552.5,234.6484 L542.5,244.6484 L241.5,244.6484 L241.5,235.1484 A7.5,7.5 0 0 1 249,227.6484 " fill="#EEEEEE" style="stroke:#000000;stroke-width:1.0;"/><rect fill="none" height="175.7969" rx="7.5" ry="7.5" style="stroke:#000000;stroke-width:2.0;" width="558" x="241.5" y="227.6484"/><text fill="#000000" font-family="sans-serif" font-size="13" font-weight="bold" lengthAdjust="spacing" textLength="266" x="256.5" y="240.7153">Progressive Disclosure Verification</text><line style="stroke:#A80036;stroke-width:1.0;" x1="353.5" x2="395.5" y1="265.9141" y2="265.9141"/><line style="stroke:#A80036;stroke-width:1.0;" x1="395.5" x2="395.5" y1="265.9141" y2="278.9141"/><line style="stroke:#A80036;stroke-width:1.0;" x1="354.5" x2="395.5" y1="278.9141" y2="278.9141"/><polygon fill="#A80036" points="364.5,274.9141,354.5,278.9141,364.5,282.9141,360.5,278.9141" style="stroke:#A80036;stroke-width:1.0;"/><text fill="#000000" font-family="sans-serif" font-size="13" font-weight="bold" lengthAdjust="spacing" textLength="9" x="360.5" y="260.8481">4</text><text fill="#000000" font-family="sans-serif" font-size="13" lengthAdjust="spacing" textLength="272" x="373.5" y="260.8481">Retrieve and Compare Disclosure Integrity</text><polygon fill="#A80036" points="640.5,304.0469,650.5,308.0469,640.5,312.0469,644.5,308.0469" style="stroke:#A80036;stroke-width:1.0;"/><line style="stroke:#A80036;stroke-width:1.0;" x1="353.5" x2="646.5" y1="308.0469" y2="308.0469"/><text fill="#000000" font-family="sans-serif" font-size="13" font-weight="bold" lengthAdjust="spacing" textLength="9" x="360.5" y="302.981">5</text><text fill="#000000" font-family="sans-serif" font-size="13" lengthAdjust="spacing" textLength="199" x="373.5" y="302.981">Disclosure Verification Request</text><polygon fill="#A80036" points="364.5,333.1797,354.5,337.1797,364.5,341.1797,360.5,337.1797" style="stroke:#A80036;stroke-width:1.0;"/><line style="stroke:#A80036;stroke-width:1.0;stroke-dasharray:2.0,2.0;" x1="358.5" x2="651.5" y1="337.1797" y2="337.1797"/><text fill="#000000" font-family="sans-serif" font-size="13" font-weight="bold" lengthAdjust="spacing" textLength="9" x="370.5" y="332.1138">6</text><text fill="#000000" font-family="sans-serif" font-size="13" lengthAdjust="spacing" textLength="122" x="383.5" y="332.1138">Verification Proof 1</text><polygon fill="#A80036" points="735,362.3125,745,366.3125,735,370.3125,739,366.3125" style="stroke:#A80036;stroke-width:1.0;"/><line style="stroke:#A80036;stroke-width:1.0;" x1="353.5" x2="741" y1="366.3125" y2="366.3125"/><text fill="#000000" font-family="sans-serif" font-size="13" font-weight="bold" lengthAdjust="spacing" textLength="9" x="360.5" y="361.2466">7</text><text fill="#000000" font-family="sans-serif" font-size="13" lengthAdjust="spacing" textLength="199" x="373.5" y="361.2466">Disclosure Verification Request</text><polygon fill="#A80036" points="364.5,391.4453,354.5,395.4453,364.5,399.4453,360.5,395.4453" style="stroke:#A80036;stroke-width:1.0;"/><line style="stroke:#A80036;stroke-width:1.0;stroke-dasharray:2.0,2.0;" x1="358.5" x2="746" y1="395.4453" y2="395.4453"/><text fill="#000000" font-family="sans-serif" font-size="13" font-weight="bold" lengthAdjust="spacing" textLength="9" x="370.5" y="390.3794">8</text><text fill="#000000" font-family="sans-serif" font-size="13" lengthAdjust="spacing" textLength="123" x="383.5" y="390.3794">Verification Proof N</text><polygon fill="#A80036" points="34.5,427.5781,24.5,431.5781,34.5,435.5781,30.5,431.5781" style="stroke:#A80036;stroke-width:1.0;"/><line style="stroke:#A80036;stroke-width:1.0;stroke-dasharray:2.0,2.0;" x1="28.5" x2="352.5" y1="431.5781" y2="431.5781"/><text fill="#000000" font-family="sans-serif" font-size="13" font-weight="bold" lengthAdjust="spacing" textLength="9" x="40.5" y="426.5122">9</text><text fill="#000000" font-family="sans-serif" font-size="13" lengthAdjust="spacing" textLength="135" x="53.5" y="426.5122">Verification response</text><polygon fill="#A80036" points="177.5,456.7109,187.5,460.7109,177.5,464.7109,181.5,460.7109" style="stroke:#A80036;stroke-width:1.0;"/><line style="stroke:#A80036;stroke-width:1.0;" x1="23.5" x2="183.5" y1="460.7109" y2="460.7109"/><text fill="#000000" font-family="sans-serif" font-size="13" font-weight="bold" lengthAdjust="spacing" textLength="19" x="30.5" y="455.645">10</text><text fill="#000000" font-family="sans-serif" font-size="13" lengthAdjust="spacing" textLength="104" x="53.5" y="455.645">Service Request</text><polygon fill="#A80036" points="34.5,485.8438,24.5,489.8438,34.5,493.8438,30.5,489.8438" style="stroke:#A80036;stroke-width:1.0;"/><line style="stroke:#A80036;stroke-width:1.0;stroke-dasharray:2.0,2.0;" x1="28.5" x2="188.5" y1="489.8438" y2="489.8438"/><text fill="#000000" font-family="sans-serif" font-size="13" font-weight="bold" lengthAdjust="spacing" textLength="18" x="40.5" y="484.7778">11</text><text fill="#000000" font-family="sans-serif" font-size="13" lengthAdjust="spacing" textLength="114" x="62.5" y="484.7778">Service Response</text><!--MD5=[31d9b7b0a2a9fce733e403df098f8015]
@startuml
title Progressive Verification with multiple Auditors

skinparam roundCorner 15
autonumber
actor User
User -> Vendor: Disclosure Request
User <- - Vendor: OETP Disclosure File

database "Disclosure Identity Provider" as ID

User -> ID: Disclosure Validation and Verification Request

group Progressive Disclosure Verification
    ID -> ID: Retrieve and Compare Disclosure Integrity
    ID -> "Auditor 1": Disclosure Verification Request
    ID <- - "Auditor 1": Verification Proof 1
    ID -> "Auditor N": Disclosure Verification Request
    ID <- - "Auditor N": Verification Proof N
end

User <- - ID: Verification response

User -> Vendor: Service Request
User <- - Vendor: Service Response
@enduml

PlantUML version 1.2021.14beta3(Unknown compile time)
(GPL source distribution)
Java Runtime: Java(TM) SE Runtime Environment
JVM: Java HotSpot(TM) 64-Bit Server VM
Default Encoding: UTF-8
Language: en
Country: US
--></g></svg>