<?xml version="1.0" encoding="UTF-8" standalone="no"?><svg xmlns="http://www.w3.org/2000/svg" xmlns:xlink="http://www.w3.org/1999/xlink" contentScriptType="application/ecmascript" contentStyleType="text/css" height="502px" preserveAspectRatio="none" style="width:845px;height:502px;background:#FFFFFF;" version="1.1" viewBox="0 0 845 502" width="845px" zoomAndPan="magnify"><defs><filter height="300%" id="f1l8qt8tcwr0wa" width="300%" x="-1" y="-1"><feGaussianBlur result="blurOut" stdDeviation="2.0"/><feColorMatrix in="blurOut" result="blurOut2" type="matrix" values="0 0 0 0 0 0 0 0 0 0 0 0 0 0 0 0 0 0 .4 0"/><feOffset dx="4.0" dy="4.0" in="blurOut2" result="blurOut3"/><feBlend in="SourceGraphic" in2="blurOut3" mode="normal"/></filter></defs><g><text fill="#000000" font-family="sans-serif" font-size="18" lengthAdjust="spacing" textLength="230" x="305.5" y="30.6855">Basic Disclosure Submission</text><rect fill="#FFFFFF" filter="url(#f1l8qt8tcwr0wa)" height="48.7031" rx="7.5" ry="7.5" style="stroke:#000000;stroke-width:2.0;" width="353" x="478" y="277.6563"/><line style="stroke:#A80036;stroke-width:1.0;stroke-dasharray:5.0,5.0;" x1="31" x2="31" y1="126.25" y2="417.0625"/><line style="stroke:#A80036;stroke-width:1.0;stroke-dasharray:5.0,5.0;" x1="255" x2="255" y1="126.25" y2="417.0625"/><line style="stroke:#A80036;stroke-width:1.0;stroke-dasharray:5.0,5.0;" x1="556" x2="556" y1="126.25" y2="417.0625"/><line style="stroke:#A80036;stroke-width:1.0;stroke-dasharray:5.0,5.0;" x1="732" x2="732" y1="126.25" y2="417.0625"/><text fill="#000000" font-family="sans-serif" font-size="14" lengthAdjust="spacing" textLength="46" x="5" y="123.1738">Vendor</text><ellipse cx="31" cy="51.6406" fill="#FEFECE" filter="url(#f1l8qt8tcwr0wa)" rx="8" ry="8" style="stroke:#A80036;stroke-width:2.0;"/><path d="M31,59.6406 L31,86.6406 M18,67.6406 L44,67.6406 M31,86.6406 L18,101.6406 M31,86.6406 L44,101.6406 " fill="none" filter="url(#f1l8qt8tcwr0wa)" style="stroke:#A80036;stroke-width:2.0;"/><text fill="#000000" font-family="sans-serif" font-size="14" lengthAdjust="spacing" textLength="46" x="5" y="430.5957">Vendor</text><ellipse cx="31" cy="443.6719" fill="#FEFECE" filter="url(#f1l8qt8tcwr0wa)" rx="8" ry="8" style="stroke:#A80036;stroke-width:2.0;"/><path d="M31,451.6719 L31,478.6719 M18,459.6719 L44,459.6719 M31,478.6719 L18,493.6719 M31,478.6719 L44,493.6719 " fill="none" filter="url(#f1l8qt8tcwr0wa)" style="stroke:#A80036;stroke-width:2.0;"/><text fill="#000000" font-family="sans-serif" font-size="14" lengthAdjust="spacing" textLength="172" x="166" y="123.1738">Disclosure Identity Provider</text><path d="M237,72.6406 C237,62.6406 255,62.6406 255,62.6406 C255,62.6406 273,62.6406 273,72.6406 L273,98.6406 C273,108.6406 255,108.6406 255,108.6406 C255,108.6406 237,108.6406 237,98.6406 L237,72.6406 " fill="#FEFECE" filter="url(#f1l8qt8tcwr0wa)" style="stroke:#000000;stroke-width:1.5;"/><path d="M237,72.6406 C237,82.6406 255,82.6406 255,82.6406 C255,82.6406 273,82.6406 273,72.6406 " fill="none" style="stroke:#000000;stroke-width:1.5;"/><text fill="#000000" font-family="sans-serif" font-size="14" lengthAdjust="spacing" textLength="172" x="166" y="430.5957">Disclosure Identity Provider</text><path d="M237,443.6719 C237,433.6719 255,433.6719 255,433.6719 C255,433.6719 273,433.6719 273,443.6719 L273,469.6719 C273,479.6719 255,479.6719 255,479.6719 C255,479.6719 237,479.6719 237,469.6719 L237,443.6719 " fill="#FEFECE" filter="url(#f1l8qt8tcwr0wa)" style="stroke:#000000;stroke-width:1.5;"/><path d="M237,443.6719 C237,453.6719 255,453.6719 255,453.6719 C255,453.6719 273,453.6719 273,443.6719 " fill="none" style="stroke:#000000;stroke-width:1.5;"/><text fill="#000000" font-family="sans-serif" font-size="14" lengthAdjust="spacing" textLength="130" x="488" y="123.1738">Signature Generator</text><ellipse cx="556" cy="92.6406" fill="#FEFECE" filter="url(#f1l8qt8tcwr0wa)" rx="12" ry="12" style="stroke:#A80036;stroke-width:2.0;"/><polygon fill="#A80036" points="552,80.6406,558,75.6406,556,80.6406,558,85.6406,552,80.6406" style="stroke:#A80036;stroke-width:1.0;"/><text fill="#000000" font-family="sans-serif" font-size="14" lengthAdjust="spacing" textLength="130" x="488" y="430.5957">Signature Generator</text><ellipse cx="556" cy="449.6719" fill="#FEFECE" filter="url(#f1l8qt8tcwr0wa)" rx="12" ry="12" style="stroke:#A80036;stroke-width:2.0;"/><polygon fill="#A80036" points="552,437.6719,558,432.6719,556,437.6719,558,442.6719,552,437.6719" style="stroke:#A80036;stroke-width:1.0;"/><text fill="#000000" font-family="sans-serif" font-size="14" lengthAdjust="spacing" textLength="172" x="643" y="123.1738">Federated Identity Provider</text><path d="M714,72.6406 C714,62.6406 732,62.6406 732,62.6406 C732,62.6406 750,62.6406 750,72.6406 L750,98.6406 C750,108.6406 732,108.6406 732,108.6406 C732,108.6406 714,108.6406 714,98.6406 L714,72.6406 " fill="#FEFECE" filter="url(#f1l8qt8tcwr0wa)" style="stroke:#000000;stroke-width:1.5;"/><path d="M714,72.6406 C714,82.6406 732,82.6406 732,82.6406 C732,82.6406 750,82.6406 750,72.6406 " fill="none" style="stroke:#000000;stroke-width:1.5;"/><text fill="#000000" font-family="sans-serif" font-size="14" lengthAdjust="spacing" textLength="172" x="643" y="430.5957">Federated Identity Provider</text><path d="M714,443.6719 C714,433.6719 732,433.6719 732,433.6719 C732,433.6719 750,433.6719 750,443.6719 L750,469.6719 C750,479.6719 732,479.6719 732,479.6719 C732,479.6719 714,479.6719 714,469.6719 L714,443.6719 " fill="#FEFECE" filter="url(#f1l8qt8tcwr0wa)" style="stroke:#000000;stroke-width:1.5;"/><path d="M714,443.6719 C714,453.6719 732,453.6719 732,453.6719 C732,453.6719 750,453.6719 750,443.6719 " fill="none" style="stroke:#000000;stroke-width:1.5;"/><polygon fill="#A80036" points="243,154.6016,253,158.6016,243,162.6016,247,158.6016" style="stroke:#A80036;stroke-width:1.0;"/><line style="stroke:#A80036;stroke-width:1.0;" x1="31" x2="249" y1="158.6016" y2="158.6016"/><text fill="#000000" font-family="sans-serif" font-size="13" font-weight="bold" lengthAdjust="spacing" textLength="7" x="38" y="153.7451">1</text><text fill="#000000" font-family="sans-serif" font-size="13" lengthAdjust="spacing" textLength="189" x="49" y="153.7451">Request with Disclosure payload</text><line style="stroke:#A80036;stroke-width:1.0;" x1="255" x2="297" y1="188.9531" y2="188.9531"/><line style="stroke:#A80036;stroke-width:1.0;" x1="297" x2="297" y1="188.9531" y2="201.9531"/><line style="stroke:#A80036;stroke-width:1.0;" x1="256" x2="297" y1="201.9531" y2="201.9531"/><polygon fill="#A80036" points="266,197.9531,256,201.9531,266,205.9531,262,201.9531" style="stroke:#A80036;stroke-width:1.0;"/><text fill="#000000" font-family="sans-serif" font-size="13" font-weight="bold" lengthAdjust="spacing" textLength="7" x="262" y="184.0967">2</text><text fill="#000000" font-family="sans-serif" font-size="13" lengthAdjust="spacing" textLength="79" x="273" y="184.0967">Validate input</text><polygon fill="#A80036" points="544,228.3047,554,232.3047,544,236.3047,548,232.3047" style="stroke:#A80036;stroke-width:1.0;"/><line style="stroke:#A80036;stroke-width:1.0;" x1="255" x2="550" y1="232.3047" y2="232.3047"/><text fill="#000000" font-family="sans-serif" font-size="13" font-weight="bold" lengthAdjust="spacing" textLength="7" x="262" y="227.4482">3</text><text fill="#000000" font-family="sans-serif" font-size="13" lengthAdjust="spacing" textLength="153" x="273" y="227.4482">Structured Data, Initialized</text><polygon fill="#A80036" points="266,258.6563,256,262.6563,266,266.6563,262,262.6563" style="stroke:#A80036;stroke-width:1.0;"/><line style="stroke:#A80036;stroke-width:1.0;stroke-dasharray:2.0,2.0;" x1="260" x2="555" y1="262.6563" y2="262.6563"/><text fill="#000000" font-family="sans-serif" font-size="13" font-weight="bold" lengthAdjust="spacing" textLength="7" x="272" y="257.7998">4</text><text fill="#000000" font-family="sans-serif" font-size="13" lengthAdjust="spacing" textLength="141" x="283" y="257.7998">SHA3-512 integrity hash</text><path d="M485.5,277.6563 L696,277.6563 L696,285.6563 L686,295.6563 L478,295.6563 L478,285.1563 " fill="#EEEEEE" style="stroke:#000000;stroke-width:1.0;"/><rect fill="none" height="48.7031" rx="7.5" ry="7.5" style="stroke:#000000;stroke-width:2.0;" width="353" x="478" y="277.6563"/><text fill="#000000" font-family="sans-serif" font-size="13" font-weight="bold" lengthAdjust="spacing" textLength="173" x="493" y="292.1514">Distributed Identity Storage</text><polygon fill="#A80036" points="720,314.3594,730,318.3594,720,322.3594,724,318.3594" style="stroke:#A80036;stroke-width:1.0;"/><line style="stroke:#A80036;stroke-width:1.0;stroke-dasharray:2.0,2.0;" x1="556" x2="726" y1="318.3594" y2="318.3594"/><text fill="#000000" font-family="sans-serif" font-size="13" font-weight="bold" lengthAdjust="spacing" textLength="7" x="563" y="313.5029">5</text><text fill="#000000" font-family="sans-serif" font-size="13" lengthAdjust="spacing" textLength="141" x="574" y="313.5029">SHA3-512 integrity hash</text><line style="stroke:#A80036;stroke-width:1.0;" x1="255" x2="297" y1="355.7109" y2="355.7109"/><line style="stroke:#A80036;stroke-width:1.0;" x1="297" x2="297" y1="355.7109" y2="368.7109"/><line style="stroke:#A80036;stroke-width:1.0;" x1="256" x2="297" y1="368.7109" y2="368.7109"/><polygon fill="#A80036" points="266,364.7109,256,368.7109,266,372.7109,262,368.7109" style="stroke:#A80036;stroke-width:1.0;"/><text fill="#000000" font-family="sans-serif" font-size="13" font-weight="bold" lengthAdjust="spacing" textLength="7" x="262" y="350.8545">6</text><text fill="#000000" font-family="sans-serif" font-size="13" lengthAdjust="spacing" textLength="276" x="273" y="350.8545">Log OETP file and a corresponding intgrity hash</text><polygon fill="#A80036" points="42,395.0625,32,399.0625,42,403.0625,38,399.0625" style="stroke:#A80036;stroke-width:1.0;"/><line style="stroke:#A80036;stroke-width:1.0;stroke-dasharray:2.0,2.0;" x1="36" x2="254" y1="399.0625" y2="399.0625"/><text fill="#000000" font-family="sans-serif" font-size="13" font-weight="bold" lengthAdjust="spacing" textLength="7" x="48" y="394.2061">7</text><text fill="#000000" font-family="sans-serif" font-size="13" lengthAdjust="spacing" textLength="125" x="59" y="394.2061">OETP Disclosure File</text><!--MD5=[d60b7705b39e0ea20e595632139a46d6]
@startuml
title Basic Disclosure Submission

skinparam roundCorner 15
autonumber

actor Vendor
database "Disclosure Identity Provider" as ID
control "Signature Generator" as SIG
database "Federated Identity Provider" as DIS

Vendor -> ID: Request with Disclosure payload
ID -> ID: Validate input
ID -> SIG: Structured Data, Initialized

ID <- - SIG: SHA3-512 integrity hash
    group Distributed Identity Storage
DIS <- - SIG: SHA3-512 integrity hash
end
ID -> ID: Log OETP file and a corresponding intgrity hash
Vendor <- - ID: OETP Disclosure File
@enduml

PlantUML version 1.2021.7(Sun May 23 15:40:07 EEST 2021)
(GPL source distribution)
Java Runtime: OpenJDK Runtime Environment
JVM: OpenJDK 64-Bit Server VM
Default Encoding: Cp1251
Language: en
Country: US
--></g></svg>