<?xml version="1.0" encoding="UTF-8" standalone="no"?><svg xmlns="http://www.w3.org/2000/svg" xmlns:xlink="http://www.w3.org/1999/xlink" contentScriptType="application/ecmascript" contentStyleType="text/css" height="502px" preserveAspectRatio="none" style="width:781px;height:502px;background:#FFFFFF;" version="1.1" viewBox="0 0 781 502" width="781px" zoomAndPan="magnify"><defs><filter height="300%" id="fslga407hzgmu" width="300%" x="-1" y="-1"><feGaussianBlur result="blurOut" stdDeviation="2.0"/><feColorMatrix in="blurOut" result="blurOut2" type="matrix" values="0 0 0 0 0 0 0 0 0 0 0 0 0 0 0 0 0 0 .4 0"/><feOffset dx="4.0" dy="4.0" in="blurOut2" result="blurOut3"/><feBlend in="SourceGraphic" in2="blurOut3" mode="normal"/></filter></defs><g><text fill="#000000" font-family="sans-serif" font-size="18" lengthAdjust="spacing" textLength="230" x="273.5" y="30.6855">Basic Disclosure Submission</text><rect fill="#FFFFFF" filter="url(#fslga407hzgmu)" height="48.7031" rx="7.5" ry="7.5" style="stroke:#000000;stroke-width:2.0;" width="353" x="414" y="277.6563"/><line style="stroke:#A80036;stroke-width:1.0;stroke-dasharray:5.0,5.0;" x1="31" x2="31" y1="126.25" y2="417.0625"/><line style="stroke:#A80036;stroke-width:1.0;stroke-dasharray:5.0,5.0;" x1="191" x2="191" y1="126.25" y2="417.0625"/><line style="stroke:#A80036;stroke-width:1.0;stroke-dasharray:5.0,5.0;" x1="492" x2="492" y1="126.25" y2="417.0625"/><line style="stroke:#A80036;stroke-width:1.0;stroke-dasharray:5.0,5.0;" x1="668" x2="668" y1="126.25" y2="417.0625"/><text fill="#000000" font-family="sans-serif" font-size="14" lengthAdjust="spacing" textLength="46" x="5" y="123.1738">Vendor</text><ellipse cx="31" cy="51.6406" fill="#FEFECE" filter="url(#fslga407hzgmu)" rx="8" ry="8" style="stroke:#A80036;stroke-width:2.0;"/><path d="M31,59.6406 L31,86.6406 M18,67.6406 L44,67.6406 M31,86.6406 L18,101.6406 M31,86.6406 L44,101.6406 " fill="none" filter="url(#fslga407hzgmu)" style="stroke:#A80036;stroke-width:2.0;"/><text fill="#000000" font-family="sans-serif" font-size="14" lengthAdjust="spacing" textLength="46" x="5" y="430.5957">Vendor</text><ellipse cx="31" cy="443.6719" fill="#FEFECE" filter="url(#fslga407hzgmu)" rx="8" ry="8" style="stroke:#A80036;stroke-width:2.0;"/><path d="M31,451.6719 L31,478.6719 M18,459.6719 L44,459.6719 M31,478.6719 L18,493.6719 M31,478.6719 L44,493.6719 " fill="none" filter="url(#fslga407hzgmu)" style="stroke:#A80036;stroke-width:2.0;"/><text fill="#000000" font-family="sans-serif" font-size="14" lengthAdjust="spacing" textLength="172" x="102" y="123.1738">Disclosure Identity Provider</text><path d="M173,72.6406 C173,62.6406 191,62.6406 191,62.6406 C191,62.6406 209,62.6406 209,72.6406 L209,98.6406 C209,108.6406 191,108.6406 191,108.6406 C191,108.6406 173,108.6406 173,98.6406 L173,72.6406 " fill="#FEFECE" filter="url(#fslga407hzgmu)" style="stroke:#000000;stroke-width:1.5;"/><path d="M173,72.6406 C173,82.6406 191,82.6406 191,82.6406 C191,82.6406 209,82.6406 209,72.6406 " fill="none" style="stroke:#000000;stroke-width:1.5;"/><text fill="#000000" font-family="sans-serif" font-size="14" lengthAdjust="spacing" textLength="172" x="102" y="430.5957">Disclosure Identity Provider</text><path d="M173,443.6719 C173,433.6719 191,433.6719 191,433.6719 C191,433.6719 209,433.6719 209,443.6719 L209,469.6719 C209,479.6719 191,479.6719 191,479.6719 C191,479.6719 173,479.6719 173,469.6719 L173,443.6719 " fill="#FEFECE" filter="url(#fslga407hzgmu)" style="stroke:#000000;stroke-width:1.5;"/><path d="M173,443.6719 C173,453.6719 191,453.6719 191,453.6719 C191,453.6719 209,453.6719 209,443.6719 " fill="none" style="stroke:#000000;stroke-width:1.5;"/><text fill="#000000" font-family="sans-serif" font-size="14" lengthAdjust="spacing" textLength="130" x="424" y="123.1738">Signature Generator</text><ellipse cx="492" cy="92.6406" fill="#FEFECE" filter="url(#fslga407hzgmu)" rx="12" ry="12" style="stroke:#A80036;stroke-width:2.0;"/><polygon fill="#A80036" points="488,80.6406,494,75.6406,492,80.6406,494,85.6406,488,80.6406" style="stroke:#A80036;stroke-width:1.0;"/><text fill="#000000" font-family="sans-serif" font-size="14" lengthAdjust="spacing" textLength="130" x="424" y="430.5957">Signature Generator</text><ellipse cx="492" cy="449.6719" fill="#FEFECE" filter="url(#fslga407hzgmu)" rx="12" ry="12" style="stroke:#A80036;stroke-width:2.0;"/><polygon fill="#A80036" points="488,437.6719,494,432.6719,492,437.6719,494,442.6719,488,437.6719" style="stroke:#A80036;stroke-width:1.0;"/><text fill="#000000" font-family="sans-serif" font-size="14" lengthAdjust="spacing" textLength="172" x="579" y="123.1738">Federated Identity Provider</text><path d="M650,72.6406 C650,62.6406 668,62.6406 668,62.6406 C668,62.6406 686,62.6406 686,72.6406 L686,98.6406 C686,108.6406 668,108.6406 668,108.6406 C668,108.6406 650,108.6406 650,98.6406 L650,72.6406 " fill="#FEFECE" filter="url(#fslga407hzgmu)" style="stroke:#000000;stroke-width:1.5;"/><path d="M650,72.6406 C650,82.6406 668,82.6406 668,82.6406 C668,82.6406 686,82.6406 686,72.6406 " fill="none" style="stroke:#000000;stroke-width:1.5;"/><text fill="#000000" font-family="sans-serif" font-size="14" lengthAdjust="spacing" textLength="172" x="579" y="430.5957">Federated Identity Provider</text><path d="M650,443.6719 C650,433.6719 668,433.6719 668,433.6719 C668,433.6719 686,433.6719 686,443.6719 L686,469.6719 C686,479.6719 668,479.6719 668,479.6719 C668,479.6719 650,479.6719 650,469.6719 L650,443.6719 " fill="#FEFECE" filter="url(#fslga407hzgmu)" style="stroke:#000000;stroke-width:1.5;"/><path d="M650,443.6719 C650,453.6719 668,453.6719 668,453.6719 C668,453.6719 686,453.6719 686,443.6719 " fill="none" style="stroke:#000000;stroke-width:1.5;"/><polygon fill="#A80036" points="179,154.6016,189,158.6016,179,162.6016,183,158.6016" style="stroke:#A80036;stroke-width:1.0;"/><line style="stroke:#A80036;stroke-width:1.0;" x1="31" x2="185" y1="158.6016" y2="158.6016"/><text fill="#000000" font-family="sans-serif" font-size="13" font-weight="bold" lengthAdjust="spacing" textLength="7" x="38" y="153.7451">1</text><text fill="#000000" font-family="sans-serif" font-size="13" lengthAdjust="spacing" textLength="113" x="49" y="153.7451">Disclosure Request</text><line style="stroke:#A80036;stroke-width:1.0;" x1="191" x2="233" y1="188.9531" y2="188.9531"/><line style="stroke:#A80036;stroke-width:1.0;" x1="233" x2="233" y1="188.9531" y2="201.9531"/><line style="stroke:#A80036;stroke-width:1.0;" x1="192" x2="233" y1="201.9531" y2="201.9531"/><polygon fill="#A80036" points="202,197.9531,192,201.9531,202,205.9531,198,201.9531" style="stroke:#A80036;stroke-width:1.0;"/><text fill="#000000" font-family="sans-serif" font-size="13" font-weight="bold" lengthAdjust="spacing" textLength="7" x="198" y="184.0967">2</text><text fill="#000000" font-family="sans-serif" font-size="13" lengthAdjust="spacing" textLength="79" x="209" y="184.0967">Validate input</text><polygon fill="#A80036" points="480,228.3047,490,232.3047,480,236.3047,484,232.3047" style="stroke:#A80036;stroke-width:1.0;"/><line style="stroke:#A80036;stroke-width:1.0;" x1="191" x2="486" y1="232.3047" y2="232.3047"/><text fill="#000000" font-family="sans-serif" font-size="13" font-weight="bold" lengthAdjust="spacing" textLength="7" x="198" y="227.4482">3</text><text fill="#000000" font-family="sans-serif" font-size="13" lengthAdjust="spacing" textLength="153" x="209" y="227.4482">Structured Data, Initialized</text><polygon fill="#A80036" points="202,258.6563,192,262.6563,202,266.6563,198,262.6563" style="stroke:#A80036;stroke-width:1.0;"/><line style="stroke:#A80036;stroke-width:1.0;stroke-dasharray:2.0,2.0;" x1="196" x2="491" y1="262.6563" y2="262.6563"/><text fill="#000000" font-family="sans-serif" font-size="13" font-weight="bold" lengthAdjust="spacing" textLength="7" x="208" y="257.7998">4</text><text fill="#000000" font-family="sans-serif" font-size="13" lengthAdjust="spacing" textLength="141" x="219" y="257.7998">SHA3-512 integrity hash</text><path d="M421.5,277.6563 L632,277.6563 L632,285.6563 L622,295.6563 L414,295.6563 L414,285.1563 " fill="#EEEEEE" style="stroke:#000000;stroke-width:1.0;"/><rect fill="none" height="48.7031" rx="7.5" ry="7.5" style="stroke:#000000;stroke-width:2.0;" width="353" x="414" y="277.6563"/><text fill="#000000" font-family="sans-serif" font-size="13" font-weight="bold" lengthAdjust="spacing" textLength="173" x="429" y="292.1514">Distributed Identity Storage</text><polygon fill="#A80036" points="656,314.3594,666,318.3594,656,322.3594,660,318.3594" style="stroke:#A80036;stroke-width:1.0;"/><line style="stroke:#A80036;stroke-width:1.0;stroke-dasharray:2.0,2.0;" x1="492" x2="662" y1="318.3594" y2="318.3594"/><text fill="#000000" font-family="sans-serif" font-size="13" font-weight="bold" lengthAdjust="spacing" textLength="7" x="499" y="313.5029">5</text><text fill="#000000" font-family="sans-serif" font-size="13" lengthAdjust="spacing" textLength="141" x="510" y="313.5029">SHA3-512 integrity hash</text><line style="stroke:#A80036;stroke-width:1.0;" x1="191" x2="233" y1="355.7109" y2="355.7109"/><line style="stroke:#A80036;stroke-width:1.0;" x1="233" x2="233" y1="355.7109" y2="368.7109"/><line style="stroke:#A80036;stroke-width:1.0;" x1="192" x2="233" y1="368.7109" y2="368.7109"/><polygon fill="#A80036" points="202,364.7109,192,368.7109,202,372.7109,198,368.7109" style="stroke:#A80036;stroke-width:1.0;"/><text fill="#000000" font-family="sans-serif" font-size="13" font-weight="bold" lengthAdjust="spacing" textLength="7" x="198" y="350.8545">6</text><text fill="#000000" font-family="sans-serif" font-size="13" lengthAdjust="spacing" textLength="276" x="209" y="350.8545">Log OETP file and a corresponding intgrity hash</text><polygon fill="#A80036" points="42,395.0625,32,399.0625,42,403.0625,38,399.0625" style="stroke:#A80036;stroke-width:1.0;"/><line style="stroke:#A80036;stroke-width:1.0;stroke-dasharray:2.0,2.0;" x1="36" x2="190" y1="399.0625" y2="399.0625"/><text fill="#000000" font-family="sans-serif" font-size="13" font-weight="bold" lengthAdjust="spacing" textLength="7" x="48" y="394.2061">7</text><text fill="#000000" font-family="sans-serif" font-size="13" lengthAdjust="spacing" textLength="125" x="59" y="394.2061">OETP Disclosure File</text><!--MD5=[cd526a9d093ae204ff65f2a82a87b30c]
@startuml
title Basic Disclosure Submission

skinparam roundCorner 15
autonumber

actor Vendor
database "Disclosure Identity Provider" as ID
control "Signature Generator" as SIG
database "Federated Identity Provider" as DIS

Vendor -> ID: Disclosure Request
ID -> ID: Validate input
ID -> SIG: Structured Data, Initialized

ID <- - SIG: SHA3-512 integrity hash
    group Distributed Identity Storage
DIS <- - SIG: SHA3-512 integrity hash
end
ID -> ID: Log OETP file and a corresponding intgrity hash
Vendor <- - ID: OETP Disclosure File
@enduml

PlantUML version 1.2021.7(Sun May 23 15:40:07 EEST 2021)
(GPL source distribution)
Java Runtime: OpenJDK Runtime Environment
JVM: OpenJDK 64-Bit Server VM
Default Encoding: Cp1251
Language: en
Country: US
--></g></svg>