<?xml version="1.0" encoding="UTF-8" standalone="no"?><svg xmlns="http://www.w3.org/2000/svg" xmlns:xlink="http://www.w3.org/1999/xlink" contentScriptType="application/ecmascript" contentStyleType="text/css" height="611px" preserveAspectRatio="none" style="width:739px;height:611px;background:#FFFFFF;" version="1.1" viewBox="0 0 739 611" width="739px" zoomAndPan="magnify"><defs><filter height="300%" id="f3s5y0o8b96oh" width="300%" x="-1" y="-1"><feGaussianBlur result="blurOut" stdDeviation="2.0"/><feColorMatrix in="blurOut" result="blurOut2" type="matrix" values="0 0 0 0 0 0 0 0 0 0 0 0 0 0 0 0 0 0 .4 0"/><feOffset dx="4.0" dy="4.0" in="blurOut2" result="blurOut3"/><feBlend in="SourceGraphic" in2="blurOut3" mode="normal"/></filter></defs><g><text fill="#000000" font-family="sans-serif" font-size="18" lengthAdjust="spacing" textLength="361" x="187" y="30.6855">Progressive Verification with multiple Auditors</text><rect fill="#FFFFFF" filter="url(#f3s5y0o8b96oh)" height="183.1094" rx="7.5" ry="7.5" style="stroke:#000000;stroke-width:2.0;" width="499.5" x="225.5" y="234.3047"/><line style="stroke:#A80036;stroke-width:1.0;stroke-dasharray:5.0,5.0;" x1="22" x2="22" y1="126.25" y2="525.4688"/><line style="stroke:#A80036;stroke-width:1.0;stroke-dasharray:5.0,5.0;" x1="182.5" x2="182.5" y1="126.25" y2="525.4688"/><line style="stroke:#A80036;stroke-width:1.0;stroke-dasharray:5.0,5.0;" x1="324.5" x2="324.5" y1="126.25" y2="525.4688"/><line style="stroke:#A80036;stroke-width:1.0;stroke-dasharray:5.0,5.0;" x1="591" x2="591" y1="126.25" y2="525.4688"/><line style="stroke:#A80036;stroke-width:1.0;stroke-dasharray:5.0,5.0;" x1="677" x2="677" y1="126.25" y2="525.4688"/><text fill="#000000" font-family="sans-serif" font-size="14" lengthAdjust="spacing" textLength="29" x="5" y="123.1738">User</text><ellipse cx="22.5" cy="51.6406" fill="#FEFECE" filter="url(#f3s5y0o8b96oh)" rx="8" ry="8" style="stroke:#A80036;stroke-width:2.0;"/><path d="M22.5,59.6406 L22.5,86.6406 M9.5,67.6406 L35.5,67.6406 M22.5,86.6406 L9.5,101.6406 M22.5,86.6406 L35.5,101.6406 " fill="none" filter="url(#f3s5y0o8b96oh)" style="stroke:#A80036;stroke-width:2.0;"/><text fill="#000000" font-family="sans-serif" font-size="14" lengthAdjust="spacing" textLength="29" x="5" y="539.002">User</text><ellipse cx="22.5" cy="552.0781" fill="#FEFECE" filter="url(#f3s5y0o8b96oh)" rx="8" ry="8" style="stroke:#A80036;stroke-width:2.0;"/><path d="M22.5,560.0781 L22.5,587.0781 M9.5,568.0781 L35.5,568.0781 M22.5,587.0781 L9.5,602.0781 M22.5,587.0781 L35.5,602.0781 " fill="none" filter="url(#f3s5y0o8b96oh)" style="stroke:#A80036;stroke-width:2.0;"/><rect fill="#FEFECE" filter="url(#f3s5y0o8b96oh)" height="31.6094" rx="7.5" ry="7.5" style="stroke:#A80036;stroke-width:1.5;" width="60" x="150.5" y="89.6406"/><text fill="#000000" font-family="sans-serif" font-size="14" lengthAdjust="spacing" textLength="46" x="157.5" y="111.1738">Vendor</text><rect fill="#FEFECE" filter="url(#f3s5y0o8b96oh)" height="31.6094" rx="7.5" ry="7.5" style="stroke:#A80036;stroke-width:1.5;" width="60" x="150.5" y="524.4688"/><text fill="#000000" font-family="sans-serif" font-size="14" lengthAdjust="spacing" textLength="46" x="157.5" y="546.002">Vendor</text><text fill="#000000" font-family="sans-serif" font-size="14" lengthAdjust="spacing" textLength="172" x="235.5" y="123.1738">Disclosure Identity Provider</text><path d="M306.5,72.6406 C306.5,62.6406 324.5,62.6406 324.5,62.6406 C324.5,62.6406 342.5,62.6406 342.5,72.6406 L342.5,98.6406 C342.5,108.6406 324.5,108.6406 324.5,108.6406 C324.5,108.6406 306.5,108.6406 306.5,98.6406 L306.5,72.6406 " fill="#FEFECE" filter="url(#f3s5y0o8b96oh)" style="stroke:#000000;stroke-width:1.5;"/><path d="M306.5,72.6406 C306.5,82.6406 324.5,82.6406 324.5,82.6406 C324.5,82.6406 342.5,82.6406 342.5,72.6406 " fill="none" style="stroke:#000000;stroke-width:1.5;"/><text fill="#000000" font-family="sans-serif" font-size="14" lengthAdjust="spacing" textLength="172" x="235.5" y="539.002">Disclosure Identity Provider</text><path d="M306.5,552.0781 C306.5,542.0781 324.5,542.0781 324.5,542.0781 C324.5,542.0781 342.5,542.0781 342.5,552.0781 L342.5,578.0781 C342.5,588.0781 324.5,588.0781 324.5,588.0781 C324.5,588.0781 306.5,588.0781 306.5,578.0781 L306.5,552.0781 " fill="#FEFECE" filter="url(#f3s5y0o8b96oh)" style="stroke:#000000;stroke-width:1.5;"/><path d="M306.5,552.0781 C306.5,562.0781 324.5,562.0781 324.5,562.0781 C324.5,562.0781 342.5,562.0781 342.5,552.0781 " fill="none" style="stroke:#000000;stroke-width:1.5;"/><rect fill="#FEFECE" filter="url(#f3s5y0o8b96oh)" height="31.6094" rx="7.5" ry="7.5" style="stroke:#A80036;stroke-width:1.5;" width="71" x="554" y="89.6406"/><text fill="#000000" font-family="sans-serif" font-size="14" lengthAdjust="spacing" textLength="57" x="561" y="111.1738">Auditor 1</text><rect fill="#FEFECE" filter="url(#f3s5y0o8b96oh)" height="31.6094" rx="7.5" ry="7.5" style="stroke:#A80036;stroke-width:1.5;" width="71" x="554" y="524.4688"/><text fill="#000000" font-family="sans-serif" font-size="14" lengthAdjust="spacing" textLength="57" x="561" y="546.002">Auditor 1</text><rect fill="#FEFECE" filter="url(#f3s5y0o8b96oh)" height="31.6094" rx="7.5" ry="7.5" style="stroke:#A80036;stroke-width:1.5;" width="72" x="639" y="89.6406"/><text fill="#000000" font-family="sans-serif" font-size="14" lengthAdjust="spacing" textLength="58" x="646" y="111.1738">Auditor N</text><rect fill="#FEFECE" filter="url(#f3s5y0o8b96oh)" height="31.6094" rx="7.5" ry="7.5" style="stroke:#A80036;stroke-width:1.5;" width="72" x="639" y="524.4688"/><text fill="#000000" font-family="sans-serif" font-size="14" lengthAdjust="spacing" textLength="58" x="646" y="546.002">Auditor N</text><polygon fill="#A80036" points="170.5,154.6016,180.5,158.6016,170.5,162.6016,174.5,158.6016" style="stroke:#A80036;stroke-width:1.0;"/><line style="stroke:#A80036;stroke-width:1.0;" x1="22.5" x2="176.5" y1="158.6016" y2="158.6016"/><text fill="#000000" font-family="sans-serif" font-size="13" font-weight="bold" lengthAdjust="spacing" textLength="7" x="29.5" y="153.7451">1</text><text fill="#000000" font-family="sans-serif" font-size="13" lengthAdjust="spacing" textLength="113" x="40.5" y="153.7451">Disclosure Request</text><polygon fill="#A80036" points="33.5,184.9531,23.5,188.9531,33.5,192.9531,29.5,188.9531" style="stroke:#A80036;stroke-width:1.0;"/><line style="stroke:#A80036;stroke-width:1.0;stroke-dasharray:2.0,2.0;" x1="27.5" x2="181.5" y1="188.9531" y2="188.9531"/><text fill="#000000" font-family="sans-serif" font-size="13" font-weight="bold" lengthAdjust="spacing" textLength="7" x="39.5" y="184.0967">2</text><text fill="#000000" font-family="sans-serif" font-size="13" lengthAdjust="spacing" textLength="125" x="50.5" y="184.0967">OETP Disclosure File</text><polygon fill="#A80036" points="312.5,215.3047,322.5,219.3047,312.5,223.3047,316.5,219.3047" style="stroke:#A80036;stroke-width:1.0;"/><line style="stroke:#A80036;stroke-width:1.0;" x1="22.5" x2="318.5" y1="219.3047" y2="219.3047"/><text fill="#000000" font-family="sans-serif" font-size="13" font-weight="bold" lengthAdjust="spacing" textLength="7" x="29.5" y="214.4482">3</text><text fill="#000000" font-family="sans-serif" font-size="13" lengthAdjust="spacing" textLength="267" x="40.5" y="214.4482">Disclosure Validation and Verification Request</text><path d="M233,234.3047 L490.5,234.3047 L490.5,242.3047 L480.5,252.3047 L225.5,252.3047 L225.5,241.8047 " fill="#EEEEEE" style="stroke:#000000;stroke-width:1.0;"/><rect fill="none" height="183.1094" rx="7.5" ry="7.5" style="stroke:#000000;stroke-width:2.0;" width="499.5" x="225.5" y="234.3047"/><text fill="#000000" font-family="sans-serif" font-size="13" font-weight="bold" lengthAdjust="spacing" textLength="220" x="240.5" y="248.7998">Progressive Disclosure Verification</text><line style="stroke:#A80036;stroke-width:1.0;" x1="324.5" x2="366.5" y1="275.0078" y2="275.0078"/><line style="stroke:#A80036;stroke-width:1.0;" x1="366.5" x2="366.5" y1="275.0078" y2="288.0078"/><line style="stroke:#A80036;stroke-width:1.0;" x1="325.5" x2="366.5" y1="288.0078" y2="288.0078"/><polygon fill="#A80036" points="335.5,284.0078,325.5,288.0078,335.5,292.0078,331.5,288.0078" style="stroke:#A80036;stroke-width:1.0;"/><text fill="#000000" font-family="sans-serif" font-size="13" font-weight="bold" lengthAdjust="spacing" textLength="7" x="331.5" y="270.1514">4</text><text fill="#000000" font-family="sans-serif" font-size="13" lengthAdjust="spacing" textLength="242" x="342.5" y="270.1514">Retrieve and Compare Disclosure Integrity</text><polygon fill="#A80036" points="579.5,314.3594,589.5,318.3594,579.5,322.3594,583.5,318.3594" style="stroke:#A80036;stroke-width:1.0;"/><line style="stroke:#A80036;stroke-width:1.0;" x1="324.5" x2="585.5" y1="318.3594" y2="318.3594"/><text fill="#000000" font-family="sans-serif" font-size="13" font-weight="bold" lengthAdjust="spacing" textLength="7" x="331.5" y="313.5029">5</text><text fill="#000000" font-family="sans-serif" font-size="13" lengthAdjust="spacing" textLength="181" x="342.5" y="313.5029">Disclosure Verification Request</text><polygon fill="#A80036" points="335.5,344.7109,325.5,348.7109,335.5,352.7109,331.5,348.7109" style="stroke:#A80036;stroke-width:1.0;"/><line style="stroke:#A80036;stroke-width:1.0;stroke-dasharray:2.0,2.0;" x1="329.5" x2="590.5" y1="348.7109" y2="348.7109"/><text fill="#000000" font-family="sans-serif" font-size="13" font-weight="bold" lengthAdjust="spacing" textLength="7" x="341.5" y="343.8545">6</text><text fill="#000000" font-family="sans-serif" font-size="13" lengthAdjust="spacing" textLength="109" x="352.5" y="343.8545">Verification Proof 1</text><polygon fill="#A80036" points="665,375.0625,675,379.0625,665,383.0625,669,379.0625" style="stroke:#A80036;stroke-width:1.0;"/><line style="stroke:#A80036;stroke-width:1.0;" x1="324.5" x2="671" y1="379.0625" y2="379.0625"/><text fill="#000000" font-family="sans-serif" font-size="13" font-weight="bold" lengthAdjust="spacing" textLength="7" x="331.5" y="374.2061">7</text><text fill="#000000" font-family="sans-serif" font-size="13" lengthAdjust="spacing" textLength="181" x="342.5" y="374.2061">Disclosure Verification Request</text><polygon fill="#A80036" points="335.5,405.4141,325.5,409.4141,335.5,413.4141,331.5,409.4141" style="stroke:#A80036;stroke-width:1.0;"/><line style="stroke:#A80036;stroke-width:1.0;stroke-dasharray:2.0,2.0;" x1="329.5" x2="676" y1="409.4141" y2="409.4141"/><text fill="#000000" font-family="sans-serif" font-size="13" font-weight="bold" lengthAdjust="spacing" textLength="7" x="341.5" y="404.5576">8</text><text fill="#000000" font-family="sans-serif" font-size="13" lengthAdjust="spacing" textLength="111" x="352.5" y="404.5576">Verification Proof N</text><polygon fill="#A80036" points="33.5,442.7656,23.5,446.7656,33.5,450.7656,29.5,446.7656" style="stroke:#A80036;stroke-width:1.0;"/><line style="stroke:#A80036;stroke-width:1.0;stroke-dasharray:2.0,2.0;" x1="27.5" x2="323.5" y1="446.7656" y2="446.7656"/><text fill="#000000" font-family="sans-serif" font-size="13" font-weight="bold" lengthAdjust="spacing" textLength="7" x="39.5" y="441.9092">9</text><text fill="#000000" font-family="sans-serif" font-size="13" lengthAdjust="spacing" textLength="121" x="50.5" y="441.9092">Verification response</text><polygon fill="#A80036" points="170.5,473.1172,180.5,477.1172,170.5,481.1172,174.5,477.1172" style="stroke:#A80036;stroke-width:1.0;"/><line style="stroke:#A80036;stroke-width:1.0;" x1="22.5" x2="176.5" y1="477.1172" y2="477.1172"/><text fill="#000000" font-family="sans-serif" font-size="13" font-weight="bold" lengthAdjust="spacing" textLength="14" x="29.5" y="472.2607">10</text><text fill="#000000" font-family="sans-serif" font-size="13" lengthAdjust="spacing" textLength="94" x="47.5" y="472.2607">Service Request</text><polygon fill="#A80036" points="33.5,503.4688,23.5,507.4688,33.5,511.4688,29.5,507.4688" style="stroke:#A80036;stroke-width:1.0;"/><line style="stroke:#A80036;stroke-width:1.0;stroke-dasharray:2.0,2.0;" x1="27.5" x2="181.5" y1="507.4688" y2="507.4688"/><text fill="#000000" font-family="sans-serif" font-size="13" font-weight="bold" lengthAdjust="spacing" textLength="14" x="39.5" y="502.6123">11</text><text fill="#000000" font-family="sans-serif" font-size="13" lengthAdjust="spacing" textLength="104" x="57.5" y="502.6123">Service Response</text><!--MD5=[f0a1e8117729ee29aaa9677ec40df9be]
@startuml

title Progressive Verification with multiple Auditors

skinparam roundCorner 15
autonumber
actor User
User -> Vendor: Disclosure Request
User <- - Vendor: OETP Disclosure File

database "Disclosure Identity Provider" as ID

User -> ID: Disclosure Validation and Verification Request

group Progressive Disclosure Verification
    ID -> ID: Retrieve and Compare Disclosure Integrity
    ID -> "Auditor 1": Disclosure Verification Request
    ID <- - "Auditor 1": Verification Proof 1
    ID -> "Auditor N": Disclosure Verification Request
    ID <- - "Auditor N": Verification Proof N
end

User <- - ID: Verification response

User -> Vendor: Service Request
User <- - Vendor: Service Response
@enduml

PlantUML version 1.2021.7(Sun May 23 15:40:07 EEST 2021)
(GPL source distribution)
Java Runtime: OpenJDK Runtime Environment
JVM: OpenJDK 64-Bit Server VM
Default Encoding: Cp1251
Language: en
Country: US
--></g></svg>