<?xml version="1.0" encoding="UTF-8" standalone="no"?><svg xmlns="http://www.w3.org/2000/svg" xmlns:xlink="http://www.w3.org/1999/xlink" contentScriptType="application/ecmascript" contentStyleType="text/css" height="319px" preserveAspectRatio="none" style="width:637px;height:319px;background:#FFFFFF;" version="1.1" viewBox="0 0 637 319" width="637px" zoomAndPan="magnify"><defs><filter height="300%" id="fk9mha6e4xaro" width="300%" x="-1" y="-1"><feGaussianBlur result="blurOut" stdDeviation="2.0"/><feColorMatrix in="blurOut" result="blurOut2" type="matrix" values="0 0 0 0 0 0 0 0 0 0 0 0 0 0 0 0 0 0 .4 0"/><feOffset dx="4.0" dy="4.0" in="blurOut2" result="blurOut3"/><feBlend in="SourceGraphic" in2="blurOut3" mode="normal"/></filter></defs><g><rect fill="none" height="27.6094" rx="7.5" ry="7.5" style="stroke:none;stroke-width:1.0;" width="313" x="132" y="15"/><text fill="#000000" font-family="sans-serif" font-size="14" font-weight="bold" lengthAdjust="spacing" textLength="303" x="137" y="34.5332">Disclosure Chaining: Level Order Traversal</text><rect fill="#FEFECE" filter="url(#fk9mha6e4xaro)" height="37.6094" rx="7.5" ry="7.5" style="stroke:#A80036;stroke-width:1.5;" width="113" x="10" y="159.4258"/><text fill="#000000" font-family="sans-serif" font-size="14" lengthAdjust="spacing" textLength="93" x="20" y="183.959">Root (Product)</text><rect fill="#FEFECE" filter="url(#fk9mha6e4xaro)" height="37.6094" rx="7.5" ry="7.5" style="stroke:#A80036;stroke-width:1.5;" width="115" x="173" y="87.4141"/><text fill="#000000" font-family="sans-serif" font-size="14" lengthAdjust="spacing" textLength="95" x="183" y="111.9473">1 (Component)</text><rect fill="#FEFECE" filter="url(#fk9mha6e4xaro)" height="37.6094" rx="7.5" ry="7.5" style="stroke:#A80036;stroke-width:1.5;" width="115" x="338" y="58.6094"/><text fill="#000000" font-family="sans-serif" font-size="14" lengthAdjust="spacing" textLength="95" x="348" y="83.1426">3 (Component)</text><rect fill="#FEFECE" filter="url(#fk9mha6e4xaro)" height="37.6094" rx="7.5" ry="7.5" style="stroke:#A80036;stroke-width:1.5;" width="115" x="503" y="58.6094"/><text fill="#000000" font-family="sans-serif" font-size="14" lengthAdjust="spacing" textLength="95" x="513" y="83.1426">7 (Component)</text><path d="M453,77.4141 L463,77.4141 C478,77.4141 478,77.4141 493,77.4141 L503,77.4141 " fill="none" style="stroke:#A80036;stroke-width:1.0;"/><path d="M288,106.2188 L298,106.2188 C313,106.2188 313,77.4141 328,77.4141 L338,77.4141 " fill="none" style="stroke:#A80036;stroke-width:1.0;"/><rect fill="#FEFECE" filter="url(#fk9mha6e4xaro)" height="37.6094" rx="7.5" ry="7.5" style="stroke:#A80036;stroke-width:1.5;" width="115" x="338" y="116.2188"/><text fill="#000000" font-family="sans-serif" font-size="14" lengthAdjust="spacing" textLength="95" x="348" y="140.752">4 (Component)</text><path d="M288,106.2188 L298,106.2188 C313,106.2188 313,135.0234 328,135.0234 L338,135.0234 " fill="none" style="stroke:#A80036;stroke-width:1.0;"/><path d="M123,178.2305 L133,178.2305 C148,178.2305 148,106.2188 163,106.2188 L173,106.2188 " fill="none" style="stroke:#A80036;stroke-width:1.0;"/><rect fill="#FEFECE" filter="url(#fk9mha6e4xaro)" height="37.6094" rx="7.5" ry="7.5" style="stroke:#A80036;stroke-width:1.5;" width="115" x="173" y="217.0352"/><text fill="#000000" font-family="sans-serif" font-size="14" lengthAdjust="spacing" textLength="95" x="183" y="241.5684">2 (Component)</text><rect fill="#FEFECE" filter="url(#fk9mha6e4xaro)" height="37.6094" rx="7.5" ry="7.5" style="stroke:#A80036;stroke-width:1.5;" width="115" x="338" y="202.6328"/><text fill="#000000" font-family="sans-serif" font-size="14" lengthAdjust="spacing" textLength="95" x="348" y="227.166">5 (Component)</text><rect fill="#FEFECE" filter="url(#fk9mha6e4xaro)" height="37.6094" rx="7.5" ry="7.5" style="stroke:#A80036;stroke-width:1.5;" width="115" x="503" y="173.8281"/><text fill="#000000" font-family="sans-serif" font-size="14" lengthAdjust="spacing" textLength="95" x="513" y="198.3613">8 (Component)</text><path d="M453,221.4375 L463,221.4375 C478,221.4375 478,192.6328 493,192.6328 L503,192.6328 " fill="none" style="stroke:#A80036;stroke-width:1.0;"/><rect fill="#FEFECE" filter="url(#fk9mha6e4xaro)" height="37.6094" rx="7.5" ry="7.5" style="stroke:#A80036;stroke-width:1.5;" width="115" x="503" y="231.4375"/><text fill="#000000" font-family="sans-serif" font-size="14" lengthAdjust="spacing" textLength="95" x="513" y="255.9707">9 (Component)</text><path d="M453,221.4375 L463,221.4375 C478,221.4375 478,250.2422 493,250.2422 L503,250.2422 " fill="none" style="stroke:#A80036;stroke-width:1.0;"/><path d="M288,235.8398 L298,235.8398 C313,235.8398 313,221.4375 328,221.4375 L338,221.4375 " fill="none" style="stroke:#A80036;stroke-width:1.0;"/><rect fill="#FEFECE" filter="url(#fk9mha6e4xaro)" height="37.6094" rx="7.5" ry="7.5" style="stroke:#A80036;stroke-width:1.5;" width="115" x="338" y="260.2422"/><text fill="#000000" font-family="sans-serif" font-size="14" lengthAdjust="spacing" textLength="95" x="348" y="284.7754">6 (Component)</text><path d="M288,235.8398 L298,235.8398 C313,235.8398 313,279.0469 328,279.0469 L338,279.0469 " fill="none" style="stroke:#A80036;stroke-width:1.0;"/><path d="M123,178.2305 L133,178.2305 C148,178.2305 148,235.8398 163,235.8398 L173,235.8398 " fill="none" style="stroke:#A80036;stroke-width:1.0;"/><!--MD5=[17e5cbcfe8138e9f0dc3dc552b5e3162]
@startmindmap
title Disclosure Chaining: Level Order Traversal

skinparam roundCorner 15
* Root (Product)
	* 1 (Component)
		* 3 (Component)
			* 7 (Component)
		* 4 (Component)
	* 2 (Component)
		* 5 (Component)
			* 8 (Component)
			* 9 (Component)
		* 6 (Component)
@endmindmap

PlantUML version 1.2021.7(Sun May 23 15:40:07 EEST 2021)
(GPL source distribution)
Java Runtime: OpenJDK Runtime Environment
JVM: OpenJDK 64-Bit Server VM
Default Encoding: Cp1251
Language: en
Country: US
--></g></svg>