<svg width="16" height="16" viewBox="0 0 16 16" fill="none" xmlns="http://www.w3.org/2000/svg" role="img" aria-labelledby="iconOpenSourceCodeTitle iconOpenSourceCodeDescription">
<title id="iconOpenSourceCodeTitle">Algorithms and code libraries: Open Source Code</title>
<desc id="iconOpenSourceCodeDescription">This product/component has disclosed that it mainly uses the Open Source Code as a part of its codebase.</desc>
<circle cx="8" cy="8" r="7" fill="#FFFFFF" class="branding-accent" />
<path d="M10.56 4.83221C9.70667 4.08053 8.64 3.75839 7.46667 3.97315C5.44 4.18792 3.84 6.01342 3.84 8.16107V8.26845C3.84 8.37584 3.84 8.48322 3.84 8.5906C3.94666 9.98658 4.8 11.1678 6.08 11.9195C6.4 11.1678 6.61333 10.5235 6.82667 9.87919C6.18667 9.44966 5.86667 8.80537 5.86667 8.05369C5.86667 7.51678 6.08 7.08725 6.4 6.7651C7.14667 6.01342 8.21333 5.79866 9.06667 6.33557C9.81333 6.7651 10.1333 7.51678 10.1333 8.37584C10.0267 9.02013 9.70667 9.55704 9.17333 9.87919C9.38667 10.5235 9.70667 11.1678 9.92 11.9195C10.4533 11.5973 10.9867 11.1678 11.4133 10.6309C12.0533 9.77181 12.2667 8.69798 12.16 7.62416C12.0533 6.55033 11.52 5.47651 10.56 4.83221Z" fill="#333333" class="branding-main" />
<path d="M8 0C3.62667 0 0 3.54362 0 7.94631C0 12.349 3.62667 16 8 16C12.3733 16 16 12.4564 16 7.94631C16 3.43624 12.3733 0 8 0ZM9.92 12.8859C9.81333 12.8859 9.70667 12.9933 9.49333 12.8859C9.38667 12.8859 9.28 12.7785 9.17333 12.5638L8.10667 9.77181C8.10667 9.55705 8.21333 9.34228 8.42667 9.2349C8.85333 9.02013 9.06667 8.80537 9.17333 8.37584C9.17333 8.05369 9.17333 7.73154 8.96 7.51678C8.74667 7.19463 8.42667 6.97987 8.10667 6.97987C7.46667 6.97987 6.93333 7.30201 6.93333 7.94631C6.82667 8.48322 7.04 8.91275 7.57333 9.2349C7.89333 9.34228 8 9.55705 7.89333 9.87919L6.82667 12.6711C6.72 12.8859 6.61333 12.8859 6.61333 12.9933C6.61333 12.9933 6.50667 12.9933 6.4 12.9933C6.29333 12.9933 6.29333 12.9933 6.18667 12.9933C5.01333 12.5638 4.05333 11.7047 3.52 10.5235C2.98667 9.55705 2.88 8.80537 2.88 8.37584V8.26846C2.88 5.58389 4.8 3.43624 7.36 3.11409C10.1333 2.68456 12.5867 4.61745 13.12 7.30201C13.5467 9.66443 12.2667 12.0268 9.92 12.8859Z" fill="#333333" class="branding-main" />
</svg>
