<?xml version="1.0" encoding="UTF-8" standalone="no"?><svg xmlns="http://www.w3.org/2000/svg" xmlns:xlink="http://www.w3.org/1999/xlink" contentScriptType="application/ecmascript" contentStyleType="text/css" height="798px" preserveAspectRatio="none" style="width:625px;height:798px;background:#FFFFFF;" version="1.1" viewBox="0 0 625 798" width="625px" zoomAndPan="magnify"><defs><filter height="300%" id="f68fhumsx85wp" width="300%" x="-1" y="-1"><feGaussianBlur result="blurOut" stdDeviation="2.0"/><feColorMatrix in="blurOut" result="blurOut2" type="matrix" values="0 0 0 0 0 0 0 0 0 0 0 0 0 0 0 0 0 0 .4 0"/><feOffset dx="4.0" dy="4.0" in="blurOut2" result="blurOut3"/><feBlend in="SourceGraphic" in2="blurOut3" mode="normal"/></filter></defs><g><text fill="#000000" font-family="sans-serif" font-size="18" lengthAdjust="spacing" textLength="324" x="149.5" y="28.6855">Disclosure Chaining: Request-Response</text><ellipse cx="335.875" cy="42.6406" fill="#000000" filter="url(#f68fhumsx85wp)" rx="10" ry="10" style="stroke:none;stroke-width:1.0;"/><rect fill="#FEFECE" filter="url(#f68fhumsx85wp)" height="35.0938" rx="12.5" ry="12.5" style="stroke:#A80036;stroke-width:1.5;" width="207" x="232.375" y="116.6406"/><text fill="#000000" font-family="sans-serif" font-size="12" lengthAdjust="spacing" textLength="187" x="242.375" y="139.0977">Request Component's Disclosure</text><polygon fill="#FEFECE" filter="url(#f68fhumsx85wp)" points="284.375,171.7344,387.375,171.7344,399.375,183.7344,387.375,195.7344,284.375,195.7344,272.375,183.7344,284.375,171.7344" style="stroke:#A80036;stroke-width:1.5;"/><text fill="#000000" font-family="sans-serif" font-size="11" lengthAdjust="spacing" textLength="103" x="284.375" y="188.2354">Disclosure Obtained?</text><text fill="#000000" font-family="sans-serif" font-size="11" lengthAdjust="spacing" textLength="18" x="254.375" y="181.3174">yes</text><text fill="#000000" font-family="sans-serif" font-size="11" lengthAdjust="spacing" textLength="12" x="399.375" y="181.3174">no</text><rect fill="#FEFECE" filter="url(#f68fhumsx85wp)" height="35.0938" rx="12.5" ry="12.5" style="stroke:#A80036;stroke-width:1.5;" width="127" x="116.75" y="205.7344"/><text fill="#000000" font-family="sans-serif" font-size="12" lengthAdjust="spacing" textLength="107" x="126.75" y="228.1914">Validate Disclosure</text><rect fill="#FEFECE" filter="url(#f68fhumsx85wp)" height="35.0938" rx="12.5" ry="12.5" style="stroke:#A80036;stroke-width:1.5;" width="112" x="124.25" y="275.8281"/><text fill="#000000" font-family="sans-serif" font-size="12" lengthAdjust="spacing" textLength="92" x="134.25" y="298.2852">Verify Disclosure</text><rect fill="#FEFECE" filter="url(#f68fhumsx85wp)" height="35.0938" rx="12.5" ry="12.5" style="stroke:#A80036;stroke-width:1.5;" width="116" x="122.25" y="332.9219"/><text fill="#000000" font-family="sans-serif" font-size="12" lengthAdjust="spacing" textLength="96" x="132.25" y="355.3789">Chain Disclosure</text><rect fill="#FEFECE" filter="url(#f68fhumsx85wp)" height="35.0938" rx="12.5" ry="12.5" style="stroke:#A80036;stroke-width:1.5;" width="195" x="82.75" y="388.0156"/><text fill="#000000" font-family="sans-serif" font-size="12" lengthAdjust="spacing" textLength="175" x="92.75" y="410.4727">Obtain list of Child Components</text><polygon fill="#FEFECE" filter="url(#f68fhumsx85wp)" points="113.75,443.1094,246.75,443.1094,258.75,455.1094,246.75,467.1094,113.75,467.1094,101.75,455.1094,113.75,443.1094" style="stroke:#A80036;stroke-width:1.5;"/><text fill="#000000" font-family="sans-serif" font-size="11" lengthAdjust="spacing" textLength="133" x="113.75" y="459.6104">Supplier information exists?</text><text fill="#000000" font-family="sans-serif" font-size="11" lengthAdjust="spacing" textLength="18" x="83.75" y="452.6924">yes</text><text fill="#000000" font-family="sans-serif" font-size="11" lengthAdjust="spacing" textLength="12" x="258.75" y="452.6924">no</text><rect fill="#FEFECE" filter="url(#f68fhumsx85wp)" height="50.1875" rx="12.5" ry="12.5" style="stroke:#A80036;stroke-width:1.5;" width="150" x="11" y="477.1094"/><text fill="#000000" font-family="sans-serif" font-size="12" lengthAdjust="spacing" textLength="119" x="21" y="499.5664">Update Tree with (yet)</text><text fill="#000000" font-family="sans-serif" font-size="12" lengthAdjust="spacing" textLength="130" x="21" y="514.6602">Unchained Disclosures</text><rect fill="#FFD700" filter="url(#f68fhumsx85wp)" height="50.1875" rx="12.5" ry="12.5" style="stroke:#A80036;stroke-width:1.5;" width="187" x="181" y="477.1094"/><text fill="#000000" font-family="sans-serif" font-size="12" font-weight="bold" lengthAdjust="spacing" textLength="27" x="191" y="499.5664">Alert</text><text fill="#000000" font-family="sans-serif" font-size="12" lengthAdjust="spacing" textLength="137" x="221" y="499.5664">"Vendor has not provided</text><text fill="#000000" font-family="sans-serif" font-size="12" lengthAdjust="spacing" textLength="115" x="191" y="514.6602">Supplier information"</text><polygon fill="#FEFECE" filter="url(#f68fhumsx85wp)" points="180.25,533.2969,192.25,545.2969,180.25,557.2969,168.25,545.2969,180.25,533.2969" style="stroke:#A80036;stroke-width:1.5;"/><rect fill="#FFC0CB" filter="url(#f68fhumsx85wp)" height="50.1875" rx="12.5" ry="12.5" style="stroke:#A80036;stroke-width:1.5;" width="187" x="398" y="205.7344"/><text fill="#000000" font-family="sans-serif" font-size="12" font-weight="bold" lengthAdjust="spacing" textLength="27" x="408" y="228.1914">Alert</text><text fill="#000000" font-family="sans-serif" font-size="12" lengthAdjust="spacing" textLength="137" x="438" y="228.1914">"Vendor has not provided</text><text fill="#000000" font-family="sans-serif" font-size="12" lengthAdjust="spacing" textLength="86" x="408" y="243.2852">any Disclosure"</text><ellipse cx="491.5" cy="301.9219" fill="#FFFFFF" filter="url(#f68fhumsx85wp)" rx="11" ry="11" style="stroke:#000000;stroke-width:1.0;"/><ellipse cx="491.5" cy="301.9219" fill="#000000" rx="6" ry="6" style="stroke:#7F7F7F;stroke-width:1.0;"/><polygon fill="#FEFECE" filter="url(#f68fhumsx85wp)" points="335.875,72.6406,347.875,84.6406,335.875,96.6406,323.875,84.6406,335.875,72.6406" style="stroke:#A80036;stroke-width:1.5;"/><polygon fill="#FEFECE" filter="url(#f68fhumsx85wp)" points="223.375,577.2969,448.375,577.2969,460.375,589.2969,448.375,601.2969,223.375,601.2969,211.375,589.2969,223.375,577.2969" style="stroke:#A80036;stroke-width:1.5;"/><text fill="#000000" font-family="sans-serif" font-size="11" lengthAdjust="spacing" textLength="12" x="339.875" y="612.7158">no</text><text fill="#000000" font-family="sans-serif" font-size="11" lengthAdjust="spacing" textLength="225" x="223.375" y="593.7979">Unchained Disclosures in the Disclosure Tree?</text><text fill="#000000" font-family="sans-serif" font-size="11" lengthAdjust="spacing" textLength="18" x="460.375" y="586.8799">yes</text><rect fill="#FEFECE" filter="url(#f68fhumsx85wp)" height="50.1875" rx="12.5" ry="12.5" style="stroke:#A80036;stroke-width:1.5;" width="144" x="263.875" y="634.2158"/><text fill="#000000" font-family="sans-serif" font-size="12" font-weight="bold" lengthAdjust="spacing" textLength="52" x="273.875" y="656.6729">Generate</text><text fill="#000000" font-family="sans-serif" font-size="12" lengthAdjust="spacing" textLength="124" x="273.875" y="671.7666">Composite Disclosure</text><rect fill="#98FB98" filter="url(#f68fhumsx85wp)" height="35.0938" rx="12.5" ry="12.5" style="stroke:#A80036;stroke-width:1.5;" width="247" x="212.375" y="704.4033"/><text fill="#000000" font-family="sans-serif" font-size="12" font-weight="bold" lengthAdjust="spacing" textLength="41" x="222.375" y="726.8604">Display</text><text fill="#000000" font-family="sans-serif" font-size="12" lengthAdjust="spacing" textLength="183" x="266.375" y="726.8604">Label for "Composite Disclosure"</text><ellipse cx="335.875" cy="770.4971" fill="#FFFFFF" filter="url(#f68fhumsx85wp)" rx="11" ry="11" style="stroke:#000000;stroke-width:1.0;"/><ellipse cx="335.875" cy="770.4971" fill="#000000" rx="6" ry="6" style="stroke:#7F7F7F;stroke-width:1.0;"/><line style="stroke:#A80036;stroke-width:1.5;" x1="180.25" x2="180.25" y1="240.8281" y2="275.8281"/><polygon fill="#A80036" points="176.25,265.8281,180.25,275.8281,184.25,265.8281,180.25,269.8281" style="stroke:#A80036;stroke-width:1.0;"/><line style="stroke:#A80036;stroke-width:1.5;" x1="180.25" x2="180.25" y1="310.9219" y2="332.9219"/><polygon fill="#A80036" points="176.25,322.9219,180.25,332.9219,184.25,322.9219,180.25,326.9219" style="stroke:#A80036;stroke-width:1.0;"/><line style="stroke:#A80036;stroke-width:1.5;" x1="180.25" x2="180.25" y1="368.0156" y2="388.0156"/><polygon fill="#A80036" points="176.25,378.0156,180.25,388.0156,184.25,378.0156,180.25,382.0156" style="stroke:#A80036;stroke-width:1.0;"/><line style="stroke:#A80036;stroke-width:1.5;" x1="101.75" x2="86" y1="455.1094" y2="455.1094"/><line style="stroke:#A80036;stroke-width:1.5;" x1="86" x2="86" y1="455.1094" y2="477.1094"/><polygon fill="#A80036" points="82,467.1094,86,477.1094,90,467.1094,86,471.1094" style="stroke:#A80036;stroke-width:1.0;"/><line style="stroke:#A80036;stroke-width:1.5;" x1="258.75" x2="274.5" y1="455.1094" y2="455.1094"/><line style="stroke:#A80036;stroke-width:1.5;" x1="274.5" x2="274.5" y1="455.1094" y2="477.1094"/><polygon fill="#A80036" points="270.5,467.1094,274.5,477.1094,278.5,467.1094,274.5,471.1094" style="stroke:#A80036;stroke-width:1.0;"/><line style="stroke:#A80036;stroke-width:1.5;" x1="86" x2="86" y1="527.2969" y2="545.2969"/><line style="stroke:#A80036;stroke-width:1.5;" x1="86" x2="168.25" y1="545.2969" y2="545.2969"/><polygon fill="#A80036" points="158.25,541.2969,168.25,545.2969,158.25,549.2969,162.25,545.2969" style="stroke:#A80036;stroke-width:1.0;"/><line style="stroke:#A80036;stroke-width:1.5;" x1="274.5" x2="274.5" y1="527.2969" y2="545.2969"/><line style="stroke:#A80036;stroke-width:1.5;" x1="274.5" x2="192.25" y1="545.2969" y2="545.2969"/><polygon fill="#A80036" points="202.25,541.2969,192.25,545.2969,202.25,549.2969,198.25,545.2969" style="stroke:#A80036;stroke-width:1.0;"/><line style="stroke:#A80036;stroke-width:1.5;" x1="180.25" x2="180.25" y1="423.1094" y2="443.1094"/><polygon fill="#A80036" points="176.25,433.1094,180.25,443.1094,184.25,433.1094,180.25,437.1094" style="stroke:#A80036;stroke-width:1.0;"/><line style="stroke:#A80036;stroke-width:1.5;" x1="491.5" x2="491.5" y1="255.9219" y2="290.9219"/><polygon fill="#A80036" points="487.5,280.9219,491.5,290.9219,495.5,280.9219,491.5,284.9219" style="stroke:#A80036;stroke-width:1.0;"/><line style="stroke:#A80036;stroke-width:1.5;" x1="272.375" x2="180.25" y1="183.7344" y2="183.7344"/><line style="stroke:#A80036;stroke-width:1.5;" x1="180.25" x2="180.25" y1="183.7344" y2="205.7344"/><polygon fill="#A80036" points="176.25,195.7344,180.25,205.7344,184.25,195.7344,180.25,199.7344" style="stroke:#A80036;stroke-width:1.0;"/><line style="stroke:#A80036;stroke-width:1.5;" x1="399.375" x2="491.5" y1="183.7344" y2="183.7344"/><line style="stroke:#A80036;stroke-width:1.5;" x1="491.5" x2="491.5" y1="183.7344" y2="205.7344"/><polygon fill="#A80036" points="487.5,195.7344,491.5,205.7344,495.5,195.7344,491.5,199.7344" style="stroke:#A80036;stroke-width:1.0;"/><line style="stroke:#A80036;stroke-width:1.5;" x1="180.25" x2="180.25" y1="557.2969" y2="562.2969"/><line style="stroke:#A80036;stroke-width:1.5;" x1="180.25" x2="335.875" y1="562.2969" y2="562.2969"/><line style="stroke:#A80036;stroke-width:1.5;" x1="335.875" x2="335.875" y1="562.2969" y2="577.2969"/><polygon fill="#A80036" points="331.875,567.2969,335.875,577.2969,339.875,567.2969,335.875,571.2969" style="stroke:#A80036;stroke-width:1.0;"/><line style="stroke:#A80036;stroke-width:1.5;" x1="335.875" x2="335.875" y1="151.7344" y2="171.7344"/><polygon fill="#A80036" points="331.875,161.7344,335.875,171.7344,339.875,161.7344,335.875,165.7344" style="stroke:#A80036;stroke-width:1.0;"/><line style="stroke:#A80036;stroke-width:1.5;" x1="335.875" x2="335.875" y1="96.6406" y2="116.6406"/><polygon fill="#A80036" points="331.875,106.6406,335.875,116.6406,339.875,106.6406,335.875,110.6406" style="stroke:#A80036;stroke-width:1.0;"/><line style="stroke:#A80036;stroke-width:1.5;" x1="460.375" x2="599" y1="589.2969" y2="589.2969"/><polygon fill="#A80036" points="595,350.9688,599,340.9688,603,350.9688,599,346.9688" style="stroke:#A80036;stroke-width:1.5;"/><line style="stroke:#A80036;stroke-width:1.5;" x1="599" x2="599" y1="84.6406" y2="589.2969"/><line style="stroke:#A80036;stroke-width:1.5;" x1="599" x2="347.875" y1="84.6406" y2="84.6406"/><polygon fill="#A80036" points="357.875,80.6406,347.875,84.6406,357.875,88.6406,353.875,84.6406" style="stroke:#A80036;stroke-width:1.0;"/><line style="stroke:#A80036;stroke-width:1.5;" x1="335.875" x2="335.875" y1="52.6406" y2="72.6406"/><polygon fill="#A80036" points="331.875,62.6406,335.875,72.6406,339.875,62.6406,335.875,66.6406" style="stroke:#A80036;stroke-width:1.0;"/><line style="stroke:#A80036;stroke-width:1.5;" x1="335.875" x2="335.875" y1="601.2969" y2="634.2158"/><polygon fill="#A80036" points="331.875,624.2158,335.875,634.2158,339.875,624.2158,335.875,628.2158" style="stroke:#A80036;stroke-width:1.0;"/><line style="stroke:#A80036;stroke-width:1.5;" x1="335.875" x2="335.875" y1="684.4033" y2="704.4033"/><polygon fill="#A80036" points="331.875,694.4033,335.875,704.4033,339.875,694.4033,335.875,698.4033" style="stroke:#A80036;stroke-width:1.0;"/><line style="stroke:#A80036;stroke-width:1.5;" x1="335.875" x2="335.875" y1="739.4971" y2="759.4971"/><polygon fill="#A80036" points="331.875,749.4971,335.875,759.4971,339.875,749.4971,335.875,753.4971" style="stroke:#A80036;stroke-width:1.0;"/><!--MD5=[92bd49677a2a617e2c38a0118ca06c57]
@startuml
title Disclosure Chaining: Request-Response


start
repeat
  :Request Component's Disclosure;
    if (Disclosure Obtained?) then (yes)
      :Validate Disclosure;
      :Verify Disclosure;
      :Chain Disclosure;
      :Obtain list of Child Components;
      if (Supplier information exists?) then (yes)
        :Update Tree with (yet)
        Unchained Disclosures;
      else (no)
        #Gold:**Alert** "Vendor has not provided
        Supplier information";
      endif
    else (no)
      #pink:**Alert** "Vendor has not provided
      any Disclosure";
      stop
    endif
repeat while (Unchained Disclosures in the Disclosure Tree?) is (yes) not (no)
:**Generate**
Composite Disclosure;
#palegreen:**Display** Label for "Composite Disclosure";
stop

@enduml

PlantUML version 1.2021.7(Sun May 23 15:40:07 EEST 2021)
(GPL source distribution)
Java Runtime: OpenJDK Runtime Environment
JVM: OpenJDK 64-Bit Server VM
Default Encoding: Cp1251
Language: en
Country: US
--></g></svg>