<?xml version="1.0" encoding="UTF-8" standalone="no"?><svg xmlns="http://www.w3.org/2000/svg" xmlns:xlink="http://www.w3.org/1999/xlink" contentScriptType="application/ecmascript" contentStyleType="text/css" height="467px" preserveAspectRatio="none" style="width:886px;height:467px;background:#FFFFFF;" version="1.1" viewBox="0 0 886 467" width="886px" zoomAndPan="magnify"><defs><filter height="300%" id="f1fwjiq2wi9pn6" width="300%" x="-1" y="-1"><feGaussianBlur result="blurOut" stdDeviation="2.0"/><feColorMatrix in="blurOut" result="blurOut2" type="matrix" values="0 0 0 0 0 0 0 0 0 0 0 0 0 0 0 0 0 0 .4 0"/><feOffset dx="4.0" dy="4.0" in="blurOut2" result="blurOut3"/><feBlend in="SourceGraphic" in2="blurOut3" mode="normal"/></filter></defs><g><text fill="#000000" font-family="sans-serif" font-size="18" lengthAdjust="spacing" textLength="227" x="319.25" y="18.6855">Disclosure Creation Process</text><!--MD5=[2e196586b73320830e6bcb7e3200d727]
entity SA--><ellipse cx="387" cy="388.6406" fill="#FEFECE" filter="url(#f1fwjiq2wi9pn6)" rx="8" ry="8" style="stroke:#A80036;stroke-width:1.5;"/><path d="M387,396.6406 L387,423.6406 M374,404.6406 L400,404.6406 M387,423.6406 L374,438.6406 M387,423.6406 L400,438.6406 " fill="none" filter="url(#f1fwjiq2wi9pn6)" style="stroke:#A80036;stroke-width:1.5;"/><text fill="#000000" font-family="sans-serif" font-size="14" lengthAdjust="spacing" textLength="65" x="354.5" y="458.6738">Supplier A</text><!--MD5=[db5ca709379f12a280ab2b7d6533fd7d]
entity SB--><ellipse cx="226" cy="388.6406" fill="#FEFECE" filter="url(#f1fwjiq2wi9pn6)" rx="8" ry="8" style="stroke:#A80036;stroke-width:1.5;"/><path d="M226,396.6406 L226,423.6406 M213,404.6406 L239,404.6406 M226,423.6406 L213,438.6406 M226,423.6406 L239,438.6406 " fill="none" filter="url(#f1fwjiq2wi9pn6)" style="stroke:#A80036;stroke-width:1.5;"/><text fill="#000000" font-family="sans-serif" font-size="14" lengthAdjust="spacing" textLength="65" x="193.5" y="458.6738">Supplier B</text><!--MD5=[9c35c66068622dad62ecac52c54c307b]
entity V--><ellipse cx="29" cy="36.6406" fill="#FEFECE" filter="url(#f1fwjiq2wi9pn6)" rx="8" ry="8" style="stroke:#A80036;stroke-width:1.5;"/><path d="M29,44.6406 L29,71.6406 M16,52.6406 L42,52.6406 M29,71.6406 L16,86.6406 M29,71.6406 L42,86.6406 " fill="none" filter="url(#f1fwjiq2wi9pn6)" style="stroke:#A80036;stroke-width:1.5;"/><text fill="#000000" font-family="sans-serif" font-size="14" lengthAdjust="spacing" textLength="46" x="6" y="106.6738">Vendor</text><!--MD5=[7b252b082557083cb6afa3ae89fae9bf]
entity CA--><rect fill="#FEFECE" filter="url(#f1fwjiq2wi9pn6)" height="47.6094" rx="7.5" ry="7.5" style="stroke:#A80036;stroke-width:1.5;" width="126" x="324" y="270.1406"/><rect fill="#FEFECE" height="10" style="stroke:#A80036;stroke-width:1.5;" width="15" x="430" y="275.1406"/><rect fill="#FEFECE" height="2" style="stroke:#A80036;stroke-width:1.5;" width="4" x="428" y="277.1406"/><rect fill="#FEFECE" height="2" style="stroke:#A80036;stroke-width:1.5;" width="4" x="428" y="281.1406"/><text fill="#000000" font-family="sans-serif" font-size="14" lengthAdjust="spacing" textLength="86" x="339" y="304.6738">Component A</text><!--MD5=[b9a6fa3e926141d370e499cfdaf642ce]
entity CB--><rect fill="#FEFECE" filter="url(#f1fwjiq2wi9pn6)" height="47.6094" rx="7.5" ry="7.5" style="stroke:#A80036;stroke-width:1.5;" width="126" x="163" y="270.1406"/><rect fill="#FEFECE" height="10" style="stroke:#A80036;stroke-width:1.5;" width="15" x="269" y="275.1406"/><rect fill="#FEFECE" height="2" style="stroke:#A80036;stroke-width:1.5;" width="4" x="267" y="277.1406"/><rect fill="#FEFECE" height="2" style="stroke:#A80036;stroke-width:1.5;" width="4" x="267" y="281.1406"/><text fill="#000000" font-family="sans-serif" font-size="14" lengthAdjust="spacing" textLength="86" x="178" y="304.6738">Component B</text><!--MD5=[bdbee0fc59a29b9ec21c283a244fef13]
entity DA--><path d="M333.5,178.6406 L333.5,201.25 A7.5,7.5 0 0 0 341,208.75 L425,208.75 A7.5,7.5 0 0 0 432.5,201.25 L432.5,181.1406 L422.5,171.1406 L341,171.1406 A7.5,7.5 0 0 0 333.5,178.6406 " fill="#FEFECE" filter="url(#f1fwjiq2wi9pn6)" style="stroke:#000000;stroke-width:1.5;"/><path d="M422.5,171.1406 L422.5,173.6406 A7.5,7.5 0 0 0 430,181.1406 L432.5,181.1406 " fill="#FEFECE" style="stroke:#000000;stroke-width:1.5;"/><text fill="#000000" font-family="sans-serif" font-size="14" lengthAdjust="spacing" textLength="79" x="343.5" y="195.6738">Disclosure A</text><!--MD5=[f9ba5bf973e7832d2ce5ed59077b93f7]
entity DB--><path d="M196.5,178.6406 L196.5,201.25 A7.5,7.5 0 0 0 204,208.75 L288,208.75 A7.5,7.5 0 0 0 295.5,201.25 L295.5,181.1406 L285.5,171.1406 L204,171.1406 A7.5,7.5 0 0 0 196.5,178.6406 " fill="#FEFECE" filter="url(#f1fwjiq2wi9pn6)" style="stroke:#000000;stroke-width:1.5;"/><path d="M285.5,171.1406 L285.5,173.6406 A7.5,7.5 0 0 0 293,181.1406 L295.5,181.1406 " fill="#FEFECE" style="stroke:#000000;stroke-width:1.5;"/><text fill="#000000" font-family="sans-serif" font-size="14" lengthAdjust="spacing" textLength="79" x="206.5" y="195.6738">Disclosure B</text><!--MD5=[118f42602524ad482f02b27ef22fc383]
entity D--><path d="M714.5,57.1406 L714.5,79.75 A7.5,7.5 0 0 0 722,87.25 L864,87.25 A7.5,7.5 0 0 0 871.5,79.75 L871.5,59.6406 L861.5,49.6406 L722,49.6406 A7.5,7.5 0 0 0 714.5,57.1406 " fill="#FEFECE" filter="url(#f1fwjiq2wi9pn6)" style="stroke:#000000;stroke-width:1.5;"/><path d="M861.5,49.6406 L861.5,52.1406 A7.5,7.5 0 0 0 869,59.6406 L871.5,59.6406 " fill="#FEFECE" style="stroke:#000000;stroke-width:1.5;"/><text fill="#000000" font-family="sans-serif" font-size="14" lengthAdjust="spacing" textLength="137" x="724.5" y="74.1738">Composite Disclosure</text><ellipse cx="186.8274" cy="68.6346" fill="#FEFECE" filter="url(#f1fwjiq2wi9pn6)" rx="49.8274" ry="15.494" style="stroke:#A80036;stroke-width:1.5;"/><text fill="#000000" font-family="sans-serif" font-size="14" lengthAdjust="spacing" textLength="54" x="157.1067" y="73.089">Creation</text><ellipse cx="323.8032" cy="68.6493" fill="#FEFECE" filter="url(#f1fwjiq2wi9pn6)" rx="51.3032" ry="15.5087" style="stroke:#A80036;stroke-width:1.5;"/><text fill="#000000" font-family="sans-serif" font-size="14" lengthAdjust="spacing" textLength="56" x="292.8032" y="73.1659">Chaining</text><ellipse cx="466.2356" cy="68.6898" fill="#FEFECE" filter="url(#f1fwjiq2wi9pn6)" rx="55.7356" ry="15.5492" style="stroke:#A80036;stroke-width:1.5;"/><text fill="#000000" font-family="sans-serif" font-size="14" lengthAdjust="spacing" textLength="62" x="432.2356" y="73.2064">Validation</text><ellipse cx="618.1463" cy="68.7348" fill="#FEFECE" filter="url(#f1fwjiq2wi9pn6)" rx="61.6463" ry="15.5942" style="stroke:#A80036;stroke-width:1.5;"/><text fill="#000000" font-family="sans-serif" font-size="14" lengthAdjust="spacing" textLength="70" x="580.1463" y="73.2514">Verification</text><!--MD5=[3b24f9c31caf6a3e609d3643f5c0be71]
link V to Creation--><path d="M52.31,68.6406 C73.16,68.6406 104.54,68.6406 131.77,68.6406 " fill="none" id="V-to-Creation" style="stroke:#A80036;stroke-width:1.0;"/><polygon fill="#A80036" points="136.8,68.6406,127.8,64.6406,131.8,68.6406,127.8,72.6406,136.8,68.6406" style="stroke:#A80036;stroke-width:1.0;"/><text fill="#000000" font-family="sans-serif" font-size="13" lengthAdjust="spacing" textLength="48" x="70.5" y="62.1357">disclose</text><!--MD5=[b41c0f77075d05ddbd550d277ca9dc13]
reverse link CA to SA--><path d="M387,323.6406 C387,340.0406 387,360.9106 387,379.0006 " fill="none" id="CA-backto-SA" style="stroke:#A80036;stroke-width:1.0;"/><polygon fill="#A80036" points="387,318.2706,383,327.2706,387,323.2706,391,327.2706,387,318.2706" style="stroke:#A80036;stroke-width:1.0;"/><!--MD5=[9714ec813d4033e46824989572325335]
reverse link CB to SB--><path d="M226,323.6406 C226,340.0406 226,360.9106 226,379.0006 " fill="none" id="CB-backto-SB" style="stroke:#A80036;stroke-width:1.0;"/><polygon fill="#A80036" points="226,318.2706,222,327.2706,226,323.2706,230,327.2706,226,318.2706" style="stroke:#A80036;stroke-width:1.0;"/><!--MD5=[2b92c5e558245565c6287bcab53c46a1]
reverse link DA to CA--><path d="M383.93,214.7906 C384.58,231.4106 385.45,253.5506 386.09,270.0506 " fill="none" id="DA-backto-CA" style="stroke:#A80036;stroke-width:1.0;"/><polygon fill="#A80036" points="383.72,209.3806,380.0829,218.5333,383.9198,214.3766,388.0765,218.2136,383.72,209.3806" style="stroke:#A80036;stroke-width:1.0;"/><!--MD5=[48b75eeedec11a6160b7829c58b77841]
reverse link DB to CB--><path d="M241.45,214.3506 C238.18,231.0306 233.79,253.4106 230.53,270.0506 " fill="none" id="DB-backto-CB" style="stroke:#A80036;stroke-width:1.0;"/><polygon fill="#A80036" points="242.42,209.3806,236.7732,217.4499,241.4641,214.2884,244.6256,218.9793,242.42,209.3806" style="stroke:#A80036;stroke-width:1.0;"/><!--MD5=[b0898fcc9732628c8f32e4b6dca1636e]
reverse link Chaining to DA--><path d="M333.5,88.8806 C344.65,111.4706 363.02,148.6706 373.97,170.8406 " fill="none" id="Chaining-backto-DA" style="stroke:#A80036;stroke-width:1.0;"/><polygon fill="#A80036" points="331.23,84.2906,331.6269,94.1315,333.4432,88.7741,338.8005,90.5904,331.23,84.2906" style="stroke:#A80036;stroke-width:1.0;"/><!--MD5=[e366b3f80ef8840dd4ccc16b4c5fbdc4]
reverse link Chaining to DB--><path d="M311.63,88.6006 C296.9,111.1606 272.48,148.5806 257.94,170.8406 " fill="none" id="Chaining-backto-DB" style="stroke:#A80036;stroke-width:1.0;"/><polygon fill="#A80036" points="314.44,84.2906,306.1615,89.626,311.6995,88.4727,312.8528,94.0107,314.44,84.2906" style="stroke:#A80036;stroke-width:1.0;"/><!--MD5=[b204bb1d20a34d654792238222e6dff0]
link Creation to Chaining--><path d="M237.04,68.6406 C247.07,68.6406 257.09,68.6406 267.12,68.6406 " fill="none" id="Creation-to-Chaining" style="stroke:#A80036;stroke-width:1.0;"/><polygon fill="#A80036" points="272.37,68.6406,263.37,64.6406,267.37,68.6406,263.37,72.6406,272.37,68.6406" style="stroke:#A80036;stroke-width:1.0;"/><!--MD5=[0abf910d8caba42c516843e29163170a]
link Chaining to Validation--><path d="M375.59,68.6406 C385.41,68.6406 395.24,68.6406 405.06,68.6406 " fill="none" id="Chaining-to-Validation" style="stroke:#A80036;stroke-width:1.0;"/><polygon fill="#A80036" points="410.2,68.6406,401.2,64.6406,405.2,68.6406,401.2,72.6406,410.2,68.6406" style="stroke:#A80036;stroke-width:1.0;"/><!--MD5=[f1f6c72b006e83a926d8890997980350]
link Validation to Verification--><path d="M521.52,68.6406 C531.36,68.6406 541.2,68.6406 551.04,68.6406 " fill="none" id="Validation-to-Verification" style="stroke:#A80036;stroke-width:1.0;"/><polygon fill="#A80036" points="556.19,68.6406,547.19,64.6406,551.19,68.6406,547.19,72.6406,556.19,68.6406" style="stroke:#A80036;stroke-width:1.0;"/><!--MD5=[a7e1cf9343fd0f8d4b5d63e66d817dca]
link Verification to D--><path d="M679.52,68.6406 C689.34,68.6406 699.15,68.6406 708.97,68.6406 " fill="none" id="Verification-to-D" style="stroke:#A80036;stroke-width:1.0;"/><polygon fill="#A80036" points="714.1,68.6406,705.1,64.6406,709.1,68.6406,705.1,72.6406,714.1,68.6406" style="stroke:#A80036;stroke-width:1.0;"/><!--MD5=[0545d093a9e6a39372a0db7d9f830ba9]
@startuml

title Disclosure Creation Process

skinparam roundCorner 15

actor "Supplier A" as SA
actor "Supplier B" as SB
actor Vendor as V

component "Component A" as CA
component "Component B" as CB
file "Disclosure A" as DA
file "Disclosure B" as DB
file "Composite Disclosure" as D

V-right->(Creation):disclose
SA-up->CA
SB-up->CB
CA-up->DA
CB-up->DB
DA-up->(Chaining)
DB-up->(Chaining)
(Creation)->(Chaining)
(Chaining)->(Validation)
(Validation)->(Verification)
(Verification)->D
@enduml

PlantUML version 1.2021.7(Sun May 23 15:40:07 EEST 2021)
(GPL source distribution)
Java Runtime: OpenJDK Runtime Environment
JVM: OpenJDK 64-Bit Server VM
Default Encoding: Cp1251
Language: en
Country: US
--></g></svg>